<?xml version="1.0" encoding="UTF-8"?>
<svg version="1.1" viewBox="0 0 1440 207" xml:space="preserve" xmlns="http://www.w3.org/2000/svg">
    <path d="m0 0h275l37 18 48.5 29.423 33.5 14.577 31 13.5h564.5l61-13.5 30-14.577 51-29.423 35.5-18h273v207h-1440v-207z" fill="#D3D3D3"/>
    <g transform="translate(0 -.35)" fill="none">
    <path d="m0 3h-1.5v1.5h1.5zm279.17 3.2157 0.499-1.4146zm19.423 8.5284-0.671 1.3416zm33.023 17.865-0.732 1.3094zm14.522 8.0789 0.724-1.3137zm52.679 25.979-0.562 1.3909zm46.187 11.731h1.5v-1.4263l-1.425-0.0718zm0 0.1024h-1.5v1.5h1.5zm596.19-11.833 0.56 1.3909zm52.68-25.979 0.72 1.3137zm14.49-8.0621-0.73-1.3108v0.0015zm0.03-0.0168 0.73 1.3108v-0.0014zm33.02-17.865 0.67 1.3416zm19.42-8.5284-0.49-1.4146zm279.17-3.2157v1.5h1.5v-1.5zm0-1h1.5v-1.5h-1.5zm-279.5 3.2726 0.5 1.4146zm-19.54 8.5771-0.67-1.3417zm-33.08 17.899-0.73-1.3093zm-14.5 8.0634-0.72-1.3137zm-52.57 25.927-0.56-1.3909zm-641.62 0 0.562-1.3909zm-52.571-25.927-0.724 1.3137zm-14.491-8.062 0.732-1.3094-8e-3 -0.0044zm-3e-3 -0.0014-0.731 1.3097 8e-3 0.0041zm-1e-3 -7e-4 -0.732 1.3093 1e-3 3e-4zm-33.085-17.898 0.671-1.3417zm-19.538-8.5771-0.498 1.4146zm-279.5-3.2726v-1.5h-1.5v1.5zm0.4492-0.5h-0.4492v3h0.4492zm0.45109 0h-0.45109v3h0.45109zm0.45298 0h-0.45298v3h0.45298zm0.45487 0h-0.45487v3h0.45487zm0.45673 0h-0.45673v3h0.45673zm0.4586 0h-0.4586v3h0.4586zm0.46044 0h-0.46044v3h0.46044zm0.46229 0h-0.46229v3h0.46229zm0.46412 0h-0.46412v3h0.46412zm0.46594 0h-0.46594v3h0.46594zm0.46775 0h-0.46775v3h0.46775zm0.46956 0h-0.46956v3h0.46956zm0.47135 0h-0.47135v3h0.47135zm0.47313 0h-0.47313v3h0.47313zm0.47491 0h-0.47491v3h0.47491zm0.47667 0h-0.47667v3h0.47667zm0.47842 0h-0.47842v3h0.47842zm0.48017 0h-0.48017v3h0.48017zm0.48191 0h-0.48191v3h0.48191zm0.48363 0h-0.48363v3h0.48363zm0.48535 0h-0.48535v3h0.48535zm0.48709 0h-0.48709v3h0.48709zm0.4887 0h-0.4887v3h0.4887zm0.4905 0h-0.4905v3h0.4905zm0.4921 0h-0.4921v3h0.4921zm0.4937 0h-0.4937v3h0.4937zm0.4955 0h-0.4955v3h0.4955zm0.4971 0h-0.4971v3h0.4971zm0.4987 0h-0.4987v3h0.4987zm0.5004 0h-0.5004v3h0.5004zm0.5019 0h-0.5019v3h0.5019zm0.5036 0h-0.5036v3h0.5036zm0.5052 0h-0.5052v3h0.5052zm0.5068 0h-0.5068v3h0.5068zm0.5084 0h-0.5084v3h0.5084zm0.5099 0h-0.5099v3h0.5099zm0.5115 0h-0.5115v3h0.5115zm0.513 0h-0.513v3h0.513zm0.5146 0h-0.5146v3h0.5146zm0.5161 0h-0.5161v3h0.5161zm0.5177 0h-0.5177v3h0.5177zm0.5191 0h-0.5191v3h0.5191zm0.5207 0h-0.5207v3h0.5207zm0.5221 0h-0.5221v3h0.5221zm0.5237 0h-0.5237v3h0.5237zm0.5251 0h-0.5251v3h0.5251zm0.5266 0h-0.5266v3h0.5266zm0.528 0h-0.528v3h0.528zm0.5295 0h-0.5295v3h0.5295zm0.5309 0h-0.5309v3h0.5309zm0.5324 0h-0.5324v3h0.5324zm0.5337 0h-0.5337v3h0.5337zm0.5352 0h-0.5352v3h0.5352zm0.5366 0h-0.5366v3h0.5366zm0.5379 0h-0.5379v3h0.5379zm0.5393 0h-0.5393v3h0.5393zm0.5407 0h-0.5407v3h0.5407zm0.5421 0h-0.5421v3h0.5421zm0.5434 0h-0.5434v3h0.5434zm0.5448 0h-0.5448v3h0.5448zm0.5461 0h-0.5461v3h0.5461zm0.5474 0h-0.5474v3h0.5474zm0.5487 0h-0.5487v3h0.5487zm0.55 0h-0.55v3h0.55zm0.5513 0h-0.5513v3h0.5513zm0.5526 0h-0.5526v3h0.5526zm0.5538 0h-0.5538v3h0.5538zm0.5552 0h-0.5552v3h0.5552zm0.5563 0h-0.5563v3h0.5563zm0.5577 0h-0.5577v3h0.5577zm0.5588 0h-0.5588v3h0.5588zm0.5601 0h-0.5601v3h0.5601zm0.5613 0h-0.5613v3h0.5613zm0.5625 0h-0.5625v3h0.5625zm0.5637 0h-0.5637v3h0.5637zm0.5649 0h-0.5649v3h0.5649zm0.566 0h-0.566v3h0.566zm0.5672 0h-0.5672v3h0.5672zm0.5684 0h-0.5684v3h0.5684zm0.5695 0h-0.5695v3h0.5695zm0.5707 0h-0.5707v3h0.5707zm0.5718 0h-0.5718v3h0.5718zm0.5729 0h-0.5729v3h0.5729zm0.574 0h-0.574v3h0.574zm0.5751 0h-0.5751v3h0.5751zm0.5762 0h-0.5762v3h0.5762zm0.5773 0h-0.5773v3h0.5773zm0.5784 0h-0.5784v3h0.5784zm0.5794 0h-0.5794v3h0.5794zm0.5805 0h-0.5805v3h0.5805zm0.5815 0h-0.5815v3h0.5815zm0.5825 0h-0.5825v3h0.5825zm0.5836 0h-0.5836v3h0.5836zm0.5845 0h-0.5845v3h0.5845zm0.5856 0h-0.5856v3h0.5856zm0.5866 0h-0.5866v3h0.5866zm0.5875 0h-0.5875v3h0.5875zm0.5886 0h-0.5886v3h0.5886zm0.5895 0h-0.5895v3h0.5895zm0.5904 0h-0.5904v3h0.5904zm0.5914 0h-0.5914v3h0.5914zm0.5923 0h-0.5923v3h0.5923zm0.5933 0h-0.5933v3h0.5933zm0.5941 0h-0.5941v3h0.5941zm0.5951 0h-0.5951v3h0.5951zm0.596 0h-0.596v3h0.596zm0.5968 0h-0.5968v3h0.5968zm0.5977 0h-0.5977v3h0.5977zm0.5986 0h-0.5986v3h0.5986zm0.5995 0h-0.5995v3h0.5995zm0.6003 0h-0.6003v3h0.6003zm0.6011 0h-0.6011v3h0.6011zm0.602 0h-0.602v3h0.602zm0.6028 0h-0.6028v3h0.6028zm0.6036 0h-0.6036v3h0.6036zm0.6044 0h-0.6044v3h0.6044zm0.6052 0h-0.6052v3h0.6052zm0.606 0h-0.606v3h0.606zm0.6067 0h-0.6067v3h0.6067zm0.6075 0h-0.6075v3h0.6075zm0.6083 0h-0.6083v3h0.6083zm0.609 0h-0.609v3h0.609zm0.6097 0h-0.6097v3h0.6097zm0.6104 0h-0.6104v3h0.6104zm0.6112 0h-0.6112v3h0.6112zm0.6119 0h-0.6119v3h0.6119zm0.6125 0h-0.6125v3h0.6125zm0.6133 0h-0.6133v3h0.6133zm0.6139 0h-0.6139v3h0.6139zm0.6146 0h-0.6146v3h0.6146zm0.6152 0h-0.6152v3h0.6152zm0.6159 0h-0.6159v3h0.6159zm0.6166 0h-0.6166v3h0.6166zm0.6171 0h-0.6171v3h0.6171zm0.6178 0h-0.6178v3h0.6178zm0.6183 0h-0.6183v3h0.6183zm0.619 0h-0.619v3h0.619zm0.6196 0h-0.6196v3h0.6196zm0.6201 0h-0.6201v3h0.6201zm0.6207 0h-0.6207v3h0.6207zm0.6213 0h-0.6213v3h0.6213zm0.6218 0h-0.6218v3h0.6218zm0.6224 0h-0.6224v3h0.6224zm0.6228 0h-0.6228v3h0.6228zm0.6234 0h-0.6234v3h0.6234zm0.624 0h-0.624v3h0.624zm0.6244 0h-0.6244v3h0.6244zm0.6249 0h-0.6249v3h0.6249zm0.6254 0h-0.6254v3h0.6254zm0.6258 0h-0.6258v3h0.6258zm0.6264 0h-0.6264v3h0.6264zm0.6267 0h-0.6267v3h0.6267zm0.6273 0h-0.6273v3h0.6273zm0.6276 0h-0.6276v3h0.6276zm0.6281 0h-0.6281v3h0.6281zm0.6285 0h-0.6285v3h0.6285zm0.6289 0h-0.6289v3h0.6289zm0.6293 0h-0.6293v3h0.6293zm0.6297 0h-0.6297v3h0.6297zm0.63 0h-0.63v3h0.63zm0.6304 0h-0.6304v3h0.6304zm0.6308 0h-0.6308v3h0.6308zm0.6311 0h-0.6311v3h0.6311zm0.6315 0h-0.6315v3h0.6315zm0.6318 0h-0.6318v3h0.6318zm0.6321 0h-0.6321v3h0.6321zm0.6324 0h-0.6324v3h0.6324zm0.6327 0h-0.6327v3h0.6327zm0.633 0h-0.633v3h0.633zm0.6333 0h-0.6333v3h0.6333zm0.6335 0h-0.6335v3h0.6335zm0.6338 0h-0.6338v3h0.6338zm0.6341 0h-0.6341v3h0.6341zm0.6343 0h-0.6343v3h0.6343zm0.6345 0h-0.6345v3h0.6345zm0.6348 0h-0.6348v3h0.6348zm0.6352 0h-0.6352v3h0.6352zm0.635 0h-0.635v3h0.635zm0.635 0h-0.635v3h0.635zm0.636 0h-0.636v3h0.636zm0.636 0h-0.636v3h0.636zm0.635 0h-0.635v3h0.635zm0.636 0h-0.636v3h0.636zm0.637 0h-0.637v3h0.637zm0.636 0h-0.636v3h0.636zm0.636 0h-0.636v3h0.636zm0.637 0h-0.637v3h0.637zm0.637 0h-0.637v3h0.637zm0.636 0h-0.636v3h0.636zm0.637 0h-0.637v3h0.637zm0.637 0h-0.637v3h0.637zm0.637 0h-0.637v3h0.637zm0.637 0h-0.637v3h0.637zm0.637 0h-0.637v3h0.637zm0.637 0h-0.637v3h0.637zm0.637 0h-0.637v3h0.637zm0.638 0h-0.638v3h0.638zm0.637 0h-0.637v3h0.637zm0.637 0h-0.637v3h0.637zm0.637 0h-0.637v3h0.637zm0.637 0h-0.637v3h0.637zm0.637 0h-0.637v3h0.637zm0.638 0h-0.638v3h0.638zm0.637 0h-0.637v3h0.637zm0.637 0h-0.637v3h0.637zm0.637 0h-0.637v3h0.637zm0.636 0h-0.636v3h0.636zm0.637 0h-0.637v3h0.637zm0.637 0h-0.637v3h0.637zm0.636 0h-0.636v3h0.636zm0.637 0h-0.637v3h0.637zm0.636 0h-0.636v3h0.636zm0.636 0h-0.636v3h0.636zm0.636 0h-0.636v3h0.636zm0.636 0h-0.636v3h0.636zm0.636 0h-0.636v3h0.636zm0.635 0h-0.635v3h0.635zm0.636 0h-0.636v3h0.636zm0.635 0h-0.635v3h0.635zm0.635 0h-0.635v3h0.635zm0.634 0h-0.634v3h0.634zm0.635 0h-0.635v3h0.635zm0.634 0h-0.634v3h0.634zm0.634 0h-0.634v3h0.634zm0.634 0h-0.634v3h0.634zm0.634 0h-0.634v3h0.634zm0.633 0h-0.633v3h0.633zm0.633 0h-0.633v3h0.633zm0.633 0h-0.633v3h0.633zm0.632 0h-0.632v3h0.632zm0.632 0h-0.632v3h0.632zm0.632 0h-0.632v3h0.632zm0.631 0h-0.631v3h0.631zm0.631 0h-0.631v3h0.631zm0.631 0h-0.631v3h0.631zm0.63 0h-0.63v3h0.63zm0.631 0h-0.631v3h0.631zm0.629 0h-0.629v3h0.629zm0.629 0h-0.629v3h0.629zm0.629 0h-0.629v3h0.629zm0.629 0h-0.629v3h0.629zm0.628 0h-0.628v3h0.628zm0.627 0h-0.627v3h0.627zm0.628 0h-0.628v3h0.628zm0.626 0h-0.626v3h0.626zm0.627 0h-0.627v3h0.627zm0.625 0h-0.625v3h0.625zm0.626 0h-0.626v3h0.626zm0.625 0h-0.625v3h0.625zm0.624 0h-0.624v3h0.624zm0.624 0h-0.624v3h0.624zm0.623 0h-0.623v3h0.623zm0.623 0h-0.623v3h0.623zm0.622 0h-0.622v3h0.622zm0.622 0h-0.622v3h0.622zm0.621 0h-0.621v3h0.621zm0.621 0h-0.621v3h0.621zm0.62 0h-0.62v3h0.62zm0.62 0h-0.62v3h0.62zm0.619 0h-0.619v3h0.619zm0.618 0h-0.618v3h0.618zm0.618 0h-0.618v3h0.618zm0.617 0h-0.617v3h0.617zm0.616 0h-0.616v3h0.616zm0.616 0h-0.616v3h0.616zm0.615 0h-0.615v3h0.615zm0.615 0h-0.615v3h0.615zm0.614 0h-0.614v3h0.614zm0.613 0h-0.613v3h0.613zm0.613 0h-0.613v3h0.613zm0.611 0h-0.611v3h0.611zm0.611 0h-0.611v3h0.611zm0.611 0h-0.611v3h0.611zm0.61 0h-0.61v3h0.61zm0.608 0h-0.608v3h0.608zm0.609 0h-0.609v3h0.609zm0.607 0h-0.607v3h0.607zm0.607 0h-0.607v3h0.607zm0.606 0h-0.606v3h0.606zm0.605 0h-0.605v3h0.605zm0.604 0h-0.604v3h0.604zm0.604 0h-0.604v3h0.604zm0.602 0h-0.602v3h0.602zm0.602 0h-0.602v3h0.602zm0.601 0h-0.601v3h0.601zm0.601 0h-0.601v3h0.601zm0.599 0h-0.599v3h0.599zm0.599 0h-0.599v3h0.599zm0.597 0h-0.597v3h0.597zm0.597 0h-0.597v3h0.597zm0.596 0h-0.596v3h0.596zm0.595 0h-0.595v3h0.595zm0.594 0h-0.594v3h0.594zm0.593 0h-0.593v3h0.593zm0.593 0h-0.593v3h0.593zm0.591 0h-0.591v3h0.591zm0.59 0h-0.59v3h0.59zm0.59 0h-0.59v3h0.59zm0.588 0h-0.588v3h0.588zm0.588 0h-0.588v3h0.588zm0.586 0h-0.586v3h0.586zm0.586 0h-0.586v3h0.586zm0.584 0h-0.584v3h0.584zm0.584 0h-0.584v3h0.584zm0.582 0h-0.582v3h0.582zm0.581 0h-0.581v3h0.581zm0.581 0h-0.581v3h0.581zm0.579 0h-0.579v3h0.579zm0.578 0h-0.578v3h0.578zm0.578 0h-0.578v3h0.578zm0.576 0h-0.576v3h0.576zm0.575 0h-0.575v3h0.575zm0.574 0h-0.574v3h0.574zm0.573 0h-0.573v3h0.573zm0.571 0h-0.571v3h0.571zm0.571 0h-0.571v3h0.571zm0.569 0h-0.569v3h0.569zm0.569 0h-0.569v3h0.569zm0.567 0h-0.567v3h0.567zm0.566 0h-0.566v3h0.566zm0.565 0h-0.565v3h0.565zm0.563 0h-0.563v3h0.563zm0.563 0h-0.563v3h0.563zm0.561 0h-0.561v3h0.561zm0.56 0h-0.56v3h0.56zm0.559 0h-0.559v3h0.559zm0.557 0h-0.557v3h0.557zm0.556 0h-0.556v3h0.556zm0.555 0h-0.555v3h0.555zm0.554 0h-0.554v3h0.554zm0.553 0h-0.553v3h0.553zm0.551 0h-0.551v3h0.551zm0.55 0h-0.55v3h0.55zm0.548 0h-0.548v3h0.548zm0.548 0h-0.548v3h0.548zm0.546 0h-0.546v3h0.546zm0.544 0h-0.544v3h0.544zm0.544 0h-0.544v3h0.544zm0.542 0h-0.542v3h0.542zm0.54 0h-0.54v3h0.54zm0.539 0h-0.539v3h0.539zm0.538 0h-0.538v3h0.538zm0.537 0h-0.537v3h0.537zm0.535 0h-0.535v3h0.535zm0.534 0h-0.534v3h0.534zm0.532 0h-0.532v3h0.532zm0.531 0h-0.531v3h0.531zm0.529 0h-0.529v3h0.529zm0.528 0h-0.528v3h0.528zm0.526 0h-0.526v3h0.526zm0.525 0h-0.525v3h0.525zm0.524 0h-0.524v3h0.524zm0.522 0h-0.522v3h0.522zm0.52 0h-0.52v3h0.52zm0.52 0h-0.52v3h0.52zm0.517 0h-0.517v3h0.517zm0.516 0h-0.516v3h0.516zm0.515 0h-0.515v3h0.515zm0.512 0h-0.512v3h0.512zm0.512 0h-0.512v3h0.512zm0.51 0h-0.51v3h0.51zm0.508 0h-0.508v3h0.508zm0.507 0h-0.507v3h0.507zm0.505 0h-0.505v3h0.505zm0.503 0h-0.503v3h0.503zm0.502 0h-0.502v3h0.502zm0.5 0h-0.5v3h0.5zm0.499 0h-0.499v3h0.499zm0.497 0h-0.497v3h0.497zm0.495 0h-0.495v3h0.495zm0.494 0h-0.494v3h0.494zm0.492 0h-0.492v3h0.492zm0.49 0h-0.49v3h0.49zm0.489 0h-0.489v3h0.489zm0.487 0h-0.487v3h0.487zm0.485 0h-0.485v3h0.485zm0.483 0h-0.483v3h0.483zm0.482 0h-0.482v3h0.482zm0.48 0h-0.48v3h0.48zm0.479 0h-0.479v3h0.479zm0.476 0h-0.476v3h0.476zm0.475 0h-0.475v3h0.475zm0.473 0h-0.473v3h0.473zm0.471 0h-0.471v3h0.471zm0.469 0h-0.469v3h0.469zm0.468 0h-0.468v3h0.468zm0.466 0h-0.466v3h0.466zm0.464 0h-0.464v3h0.464zm0.462 0h-0.462v3h0.462zm0.46 0h-0.46v3h0.46zm0.459 0h-0.459v3h0.459zm0.456 0h-0.456v3h0.456zm0.455 0h-0.455v3h0.455zm0.453 0h-0.453v3h0.453zm0.451 0h-0.451v3h0.451zm0.449 0h-0.449v3h0.449zm0.447 0h-0.447v3h0.447zm0.445 0h-0.445v3h0.445zm0.444 0h-0.444v3h0.444zm0.441 0h-0.441v3h0.441zm0.439 0h-0.439v3h0.439zm0.438 0h-0.438v3h0.438zm0.435 0h-0.435v3h0.435zm0.434 0h-0.434v3h0.434zm0.431 0h-0.431v3h0.431zm0.43 0h-0.43v3h0.43zm0.428 0h-0.428v3h0.428zm0.425 0h-0.425v3h0.425zm0.423 0h-0.423v3h0.423zm0.422 0h-0.422v3h0.422zm0.419 0h-0.419v3h0.419zm0.418 0h-0.418v3h0.418zm0.415 0h-0.415v3h0.415zm0.413 0h-0.413v3h0.413zm0.411 0h-0.411v3h0.411zm0.409 0h-0.409v3h0.409zm0.407 0h-0.407v3h0.407zm0.405 0h-0.405v3h0.405zm0.403 0h-0.403v3h0.403zm0.4 0h-0.4v3h0.4zm0.399 0h-0.399v3h0.399zm0.396 0h-0.396v3h0.396zm0.394 0h-0.394v3h0.394zm0.392 0h-0.392v3h0.392zm0.39 0h-0.39v3h0.39zm0.387 0h-0.387v3h0.387zm0.386 0h-0.386v3h0.386zm0.383 0h-0.383v3h0.383zm0.381 0h-0.381v3h0.381zm0.379 0h-0.379v3h0.379zm0.376 0h-0.376v3h0.376zm0.374 0h-0.374v3h0.374zm0.372 0h-0.372v3h0.372zm0.37 0h-0.37v3h0.37zm0.368 0h-0.368v3h0.368zm0.365 0h-0.365v3h0.365zm0.363 0h-0.363v3h0.363zm0.36 0h-0.36v3h0.36zm0.358 0h-0.358v3h0.358zm0.356 0h-0.356v3h0.356zm0.354 0h-0.354v3h0.354zm0.351 0h-0.351v3h0.351zm0.349 0h-0.349v3h0.349zm0.346 0h-0.346v3h0.346zm0.345 0h-0.345v3h0.345zm0.341 0h-0.341v3h0.341zm0.34 0h-0.34v3h0.34zm0.337 0h-0.337v3h0.337zm0.334 0h-0.334v3h0.334zm0.332 0h-0.332v3h0.332zm0.33 0h-0.33v3h0.33zm0.327 0h-0.327v3h0.327zm0.325 0h-0.325v3h0.325zm0.323 0h-0.323v3h0.323zm0.319 0h-0.319v3h0.319zm0.318 0h-0.318v3h0.318zm0.315 0h-0.315v3h0.315zm0.312 0h-0.312v3h0.312zm0.31 0h-0.31v3h0.31zm0.308 0h-0.308v3h0.308zm0.304 0h-0.304v3h0.304zm0.303 0h-0.303v3h0.303zm0.3 0h-0.3v3h0.3zm0.297 0h-0.297v3h0.297zm0.295 0h-0.295v3h0.295zm0.292 0h-0.292v3h0.292zm0.289 0h-0.289v3h0.289zm0.287 0h-0.287v3h0.287zm0.284 0h-0.284v3h0.284zm0.282 0h-0.282v3h0.282zm0.279 0h-0.279v3h0.279zm0.277 0h-0.277v3h0.277zm0.273 0h-0.273v3h0.273zm0.272 0h-0.272v3h0.272zm0.268 0h-0.268v3h0.268zm0.266 0h-0.266v3h0.266zm0.263 0h-0.263v3h0.263zm0.26 0h-0.26v3h0.26zm0.258 0h-0.258v3h0.258zm0.255 0h-0.255v3h0.255zm0.253 0h-0.253v3h0.253zm0.249 0h-0.249v3h0.249zm0.247 0h-0.247v3h0.247zm0.244 0h-0.244v3h0.244zm0.241 0h-0.241v3h0.241zm0.239 0h-0.239v3h0.239zm0.236 0h-0.236v3h0.236zm0.233 0h-0.233v3h0.233zm0.23 0h-0.23v3h0.23zm0.228 0h-0.228v3h0.228zm0.224 0h-0.224v3h0.224zm0.222 0h-0.222v3h0.222zm0.219 0h-0.219v3h0.219zm0.216 0h-0.216v3h0.216zm0.213 0h-0.213v3h0.213zm0.21 0h-0.21v3h0.21zm0.208 0h-0.208v3h0.208zm0.205 0h-0.205v3h0.205zm0.201 0h-0.201v3h0.201zm0.199 0h-0.199v3h0.199zm0.196 0h-0.196v3h0.196zm0.193 0h-0.193v3h0.193zm0.19 0h-0.19v3h0.19zm0.187 0h-0.187v3h0.187zm0.184 0h-0.184v3h0.184zm0.182 0h-0.182v3h0.182zm0.178 0h-0.178v3h0.178zm0.175 0h-0.175v3h0.175zm0.172 0h-0.172v3h0.172zm0.17 0h-0.17v3h0.17zm0.166 0h-0.166v3h0.166zm0.163 0h-0.163v3h0.163zm15.665 3.301c-5.901-2.0803-11.188-3.301-15.665-3.301v3c3.984 0 8.901 1.0976 14.667 3.1303zm19.595 8.6014c-7.096-3.5477-13.684-6.5173-19.595-8.6014l-0.998 2.8293c5.744 2.0252 12.208 4.9338 19.251 8.4554zm33.084 17.897c-11.776-6.5827-22.965-12.838-33.084-17.897l-1.342 2.6833c10.045 5.0224 21.169 11.241 32.962 17.833zm14.514 8.0745c-4.919-2.7105-9.765-5.4197-14.514-8.0745l-1.464 2.6187c4.748 2.6541 9.602 5.3677 14.53 8.0832zm52.516 25.902c-17.472-7.0545-35.398-16.468-52.516-25.902l-1.448 2.6274c17.137 9.4443 35.193 18.931 52.841 26.056zm45.701 11.624c-14.165-0.7134-29.716-5.17-45.701-11.624l-1.123 2.7818c16.128 6.5114 32.032 11.101 46.674 11.838zm-1.575 1.4981v0.1024h3v-0.1024zm1.5 1.6024h4v-3h-4zm4 0h542v-3h-542zm542 0c15.75 0 33.12-4.8249 50.75-11.942l-1.12-2.7818c-17.49 7.0584-34.44 11.724-49.63 11.724zm50.75-11.942c17.65-7.1254 35.7-16.612 52.84-26.056l-1.45-2.6274c-17.12 9.4341-35.04 18.847-52.51 25.902zm52.84-26.056c4.92-2.7098 9.76-5.4177 14.5-8.0665l-1.46-2.6186c-4.74 2.6494-9.58 5.3529-14.49 8.0577zm14.5-8.0651 0.03-0.0167-1.46-2.6215-0.03 0.0167zm0.03-0.0181c11.79-6.592 22.92-12.81 32.96-17.833l-1.34-2.6833c-10.12 5.0595-21.31 11.315-33.08 17.897zm32.96-17.833c7.05-3.5216 13.51-6.4302 19.25-8.4554l-0.99-2.8293c-5.92 2.0841-12.5 5.0536-19.6 8.6015zm19.25-8.4554c5.77-2.0328 10.69-3.1303 14.67-3.1303v-3c-4.48 0-9.76 1.2208-15.66 3.301zm14.67-3.1303h0.16v-3h-0.16zm0.16 0h0.17v-3h-0.17zm0.17 0h0.17v-3h-0.17zm0.17 0h0.17v-3h-0.17zm0.17 0h0.18v-3h-0.18zm0.18 0h0.17v-3h-0.17zm0.17 0h0.19v-3h-0.19zm0.19 0h0.18v-3h-0.18zm0.18 0h0.19v-3h-0.19zm0.19 0h0.19v-3h-0.19zm0.19 0h0.19v-3h-0.19zm0.19 0h0.2v-3h-0.2zm0.2 0h0.19v-3h-0.19zm0.19 0h0.21v-3h-0.21zm0.21 0h0.2v-3h-0.2zm0.2 0h0.21v-3h-0.21zm0.21 0h0.21v-3h-0.21zm0.21 0h0.21v-3h-0.21zm0.21 0h0.22v-3h-0.22zm0.22 0h0.22v-3h-0.22zm0.22 0h0.22v-3h-0.22zm0.22 0h0.22v-3h-0.22zm0.22 0h0.23v-3h-0.23zm0.23 0h0.23v-3h-0.23zm0.23 0h0.23v-3h-0.23zm0.23 0h0.24v-3h-0.24zm0.24 0h0.24v-3h-0.24zm0.24 0h0.24v-3h-0.24zm0.24 0h0.24v-3h-0.24zm0.24 0h0.25v-3h-0.25zm0.25 0h0.25v-3h-0.25zm0.25 0h0.25v-3h-0.25zm0.25 0h0.26v-3h-0.26zm0.26 0h0.26v-3h-0.26zm0.26 0h0.26v-3h-0.26zm0.26 0h0.26v-3h-0.26zm0.26 0h0.26v-3h-0.26zm0.26 0h0.27v-3h-0.27zm0.27 0h0.27v-3h-0.27zm0.27 0h0.28v-3h-0.28zm0.28 0h0.27v-3h-0.27zm0.27 0h0.28v-3h-0.28zm0.28 0h0.29v-3h-0.29zm0.29 0h0.28v-3h-0.28zm0.28 0h0.29v-3h-0.29zm0.29 0h0.29v-3h-0.29zm0.29 0h0.29v-3h-0.29zm0.29 0h0.29v-3h-0.29zm0.29 0h0.3v-3h-0.3zm0.3 0h0.3v-3h-0.3zm0.3 0h0.3v-3h-0.3zm0.3 0h0.31v-3h-0.31zm0.31 0h0.3v-3h-0.3zm0.3 0h0.31v-3h-0.31zm0.31 0h0.32v-3h-0.32zm0.32 0h0.31v-3h-0.31zm0.31 0h0.32v-3h-0.32zm0.32 0h0.32v-3h-0.32zm0.32 0h0.32v-3h-0.32zm0.32 0h0.33v-3h-0.33zm0.33 0h0.32v-3h-0.32zm0.32 0h0.33v-3h-0.33zm0.33 0h0.34v-3h-0.34zm0.34 0h0.33v-3h-0.33zm0.33 0h0.34v-3h-0.34zm0.34 0h0.34v-3h-0.34zm0.34 0h0.34v-3h-0.34zm0.34 0h0.34v-3h-0.34zm0.34 0h0.35v-3h-0.35zm0.35 0h0.35v-3h-0.35zm0.35 0h0.35v-3h-0.35zm0.35 0h0.35v-3h-0.35zm0.35 0h0.36v-3h-0.36zm0.36 0h0.36v-3h-0.36zm0.36 0h0.36v-3h-0.36zm0.36 0h0.36v-3h-0.36zm0.36 0h0.37v-3h-0.37zm0.37 0h0.36v-3h-0.36zm0.36 0h0.37v-3h-0.37zm0.37 0h0.37v-3h-0.37zm0.37 0h0.38v-3h-0.38zm0.38 0h0.38v-3h-0.38zm0.38 0h0.37v-3h-0.37zm0.37 0h0.38v-3h-0.38zm0.38 0h0.39v-3h-0.39zm0.39 0h0.38v-3h-0.38zm0.38 0h0.39v-3h-0.39zm0.39 0h0.39v-3h-0.39zm0.39 0h0.39v-3h-0.39zm0.39 0h0.4v-3h-0.4zm0.4 0h0.39v-3h-0.39zm0.39 0h0.4v-3h-0.4zm0.4 0h0.4v-3h-0.4zm0.4 0h0.4v-3h-0.4zm0.4 0h0.41v-3h-0.41zm0.41 0h0.41v-3h-0.41zm0.41 0h0.41v-3h-0.41zm0.41 0h0.41v-3h-0.41zm0.41 0h0.41v-3h-0.41zm0.41 0h0.42v-3h-0.42zm0.42 0h0.41v-3h-0.41zm0.41 0h0.42v-3h-0.42zm0.42 0h0.42v-3h-0.42zm0.42 0h0.43v-3h-0.43zm0.43 0h0.42v-3h-0.42zm0.42 0h0.43v-3h-0.43zm0.43 0h0.43v-3h-0.43zm0.43 0h0.43v-3h-0.43zm0.43 0h0.43v-3h-0.43zm0.43 0h0.44v-3h-0.44zm0.44 0h0.44v-3h-0.44zm0.44 0h0.44v-3h-0.44zm0.44 0h0.44v-3h-0.44zm0.44 0h0.44v-3h-0.44zm0.44 0h0.45v-3h-0.45zm0.45 0h0.44v-3h-0.44zm0.44 0h0.45v-3h-0.45zm0.45 0h0.45v-3h-0.45zm0.45 0h0.46v-3h-0.46zm0.46 0h0.45v-3h-0.45zm0.45 0h0.46v-3h-0.46zm0.46 0h0.46v-3h-0.46zm0.46 0h0.46v-3h-0.46zm0.46 0h0.46v-3h-0.46zm0.46 0h0.46v-3h-0.46zm0.46 0h0.47v-3h-0.47zm0.47 0h0.47v-3h-0.47zm0.47 0h0.47v-3h-0.47zm0.47 0h0.47v-3h-0.47zm0.47 0h0.47v-3h-0.47zm0.47 0h0.47v-3h-0.47zm0.47 0h0.48v-3h-0.48zm0.48 0h0.48v-3h-0.48zm0.48 0h0.48v-3h-0.48zm0.48 0h0.48v-3h-0.48zm0.48 0h0.49v-3h-0.49zm0.49 0h0.48v-3h-0.48zm0.48 0h0.49v-3h-0.49zm0.49 0h0.49v-3h-0.49zm0.49 0h0.49v-3h-0.49zm0.49 0h0.49v-3h-0.49zm0.49 0h0.49v-3h-0.49zm0.49 0h0.5v-3h-0.5zm0.5 0h0.49v-3h-0.49zm0.49 0h0.5v-3h-0.5zm0.5 0h0.5v-3h-0.5zm0.5 0h0.5v-3h-0.5zm0.5 0h0.51v-3h-0.51zm0.51 0h0.5v-3h-0.5zm0.5 0h0.51v-3h-0.51zm0.51 0h0.51v-3h-0.51zm0.51 0h0.51v-3h-0.51zm0.51 0h0.51v-3h-0.51zm0.51 0h0.51v-3h-0.51zm0.51 0h0.52v-3h-0.52zm0.52 0h0.51v-3h-0.51zm0.51 0h0.52v-3h-0.52zm0.52 0h0.52v-3h-0.52zm0.52 0h0.52v-3h-0.52zm0.52 0h0.52v-3h-0.52zm0.52 0h0.53v-3h-0.53zm0.53 0h0.52v-3h-0.52zm0.52 0h0.53v-3h-0.53zm0.53 0h0.53v-3h-0.53zm0.53 0h0.52v-3h-0.52zm0.52 0h0.54v-3h-0.54zm0.54 0h0.53v-3h-0.53zm0.53 0h0.53v-3h-0.53zm0.53 0h0.54v-3h-0.54zm0.54 0h0.53v-3h-0.53zm0.53 0h0.54v-3h-0.54zm0.54 0h0.54v-3h-0.54zm0.54 0h0.54v-3h-0.54zm0.54 0h0.54v-3h-0.54zm0.54 0h0.55v-3h-0.55zm0.55 0h0.54v-3h-0.54zm0.54 0h0.55v-3h-0.55zm0.55 0h0.54v-3h-0.54zm0.54 0h0.55v-3h-0.55zm0.55 0h0.55v-3h-0.55zm0.55 0h0.55v-3h-0.55zm0.55 0h0.56v-3h-0.56zm0.56 0h0.55v-3h-0.55zm0.55 0h0.55v-3h-0.55zm0.55 0h0.56v-3h-0.56zm0.56 0h0.56v-3h-0.56zm0.56 0h0.56v-3h-0.56zm0.56 0h0.56v-3h-0.56zm0.56 0h0.56v-3h-0.56zm0.56 0h0.56v-3h-0.56zm0.56 0h0.56v-3h-0.56zm0.56 0h0.57v-3h-0.57zm0.57 0h0.57v-3h-0.57zm0.57 0h0.56v-3h-0.56zm0.56 0h0.57v-3h-0.57zm0.57 0h0.57v-3h-0.57zm0.57 0h0.57v-3h-0.57zm0.57 0h0.57v-3h-0.57zm0.57 0h0.58v-3h-0.58zm0.58 0h0.57v-3h-0.57zm0.57 0h0.57v-3h-0.57zm0.57 0h0.58v-3h-0.58zm0.58 0h0.58v-3h-0.58zm0.58 0h0.58v-3h-0.58zm0.58 0h0.58v-3h-0.58zm0.58 0h0.58v-3h-0.58zm0.58 0h0.58v-3h-0.58zm0.58 0h0.58v-3h-0.58zm0.58 0h0.58v-3h-0.58zm0.58 0h0.59v-3h-0.59zm0.59 0h0.58v-3h-0.58zm0.58 0h0.59v-3h-0.59zm0.59 0h0.59v-3h-0.59zm0.59 0h0.59v-3h-0.59zm0.59 0h0.58v-3h-0.58zm0.58 0h0.6v-3h-0.6zm0.6 0h0.59v-3h-0.59zm0.59 0h0.59v-3h-0.59zm0.59 0h0.59v-3h-0.59zm0.59 0h0.6v-3h-0.6zm0.6 0h0.59v-3h-0.59zm0.59 0h0.6v-3h-0.6zm0.6 0h0.59v-3h-0.59zm0.59 0h0.6v-3h-0.6zm0.6 0h0.6v-3h-0.6zm0.6 0h0.6v-3h-0.6zm0.6 0h0.6v-3h-0.6zm0.6 0h0.6v-3h-0.6zm0.6 0h0.6v-3h-0.6zm0.6 0h0.61v-3h-0.61zm0.61 0h0.6v-3h-0.6zm0.6 0h0.6v-3h-0.6zm0.6 0h0.61v-3h-0.61zm0.61 0h0.6v-3h-0.6zm0.6 0h0.61v-3h-0.61zm0.61 0h0.61v-3h-0.61zm0.61 0h0.61v-3h-0.61zm0.61 0h0.61v-3h-0.61zm0.61 0h0.61v-3h-0.61zm0.61 0h0.61v-3h-0.61zm0.61 0h0.61v-3h-0.61zm0.61 0h0.61v-3h-0.61zm0.61 0h0.61v-3h-0.61zm0.61 0h0.61v-3h-0.61zm0.61 0h0.62v-3h-0.62zm0.62 0h0.61v-3h-0.61zm0.61 0h0.62v-3h-0.62zm0.62 0h0.61v-3h-0.61zm0.61 0h0.62v-3h-0.62zm0.62 0h0.62v-3h-0.62zm0.62 0h0.61v-3h-0.61zm0.61 0h0.62v-3h-0.62zm0.62 0h0.62v-3h-0.62zm0.62 0h0.62v-3h-0.62zm0.62 0h0.62v-3h-0.62zm0.62 0h0.62v-3h-0.62zm0.62 0h0.62v-3h-0.62zm0.62 0h0.63v-3h-0.63zm0.63 0h0.62v-3h-0.62zm0.62 0h0.62v-3h-0.62zm0.62 0h0.62v-3h-0.62zm0.62 0h0.63v-3h-0.63zm0.63 0h0.62v-3h-0.62zm0.62 0h0.63v-3h-0.63zm0.63 0h0.62v-3h-0.62zm0.62 0h0.63v-3h-0.63zm0.63 0h0.62v-3h-0.62zm0.62 0h0.63v-3h-0.63zm0.63 0h0.63v-3h-0.63zm0.63 0h0.63v-3h-0.63zm0.63 0h0.62v-3h-0.62zm0.62 0h0.63v-3h-0.63zm0.63 0h0.63v-3h-0.63zm0.63 0h0.63v-3h-0.63zm0.63 0h0.63v-3h-0.63zm0.63 0h0.63v-3h-0.63zm0.63 0h0.63v-3h-0.63zm0.63 0h0.63v-3h-0.63zm0.63 0h0.63v-3h-0.63zm0.63 0h0.63v-3h-0.63zm0.63 0h0.64v-3h-0.64zm0.64 0h0.63v-3h-0.63zm0.63 0h0.63v-3h-0.63zm0.63 0h0.63v-3h-0.63zm0.63 0h0.64v-3h-0.64zm0.64 0h0.63v-3h-0.63zm0.63 0h0.63v-3h-0.63zm0.63 0h0.64v-3h-0.64zm0.64 0h0.63v-3h-0.63zm0.63 0h0.64v-3h-0.64zm0.64 0h0.63v-3h-0.63zm0.63 0h0.63v-3h-0.63zm0.63 0h0.64v-3h-0.64zm0.64 0h0.63v-3h-0.63zm0.63 0h0.64v-3h-0.64zm0.64 0h0.64v-3h-0.64zm0.64 0h0.63v-3h-0.63zm0.63 0h0.64v-3h-0.64zm0.64 0h0.63v-3h-0.63zm0.63 0h0.64v-3h-0.64zm0.64 0h0.64v-3h-0.64zm0.64 0h0.63v-3h-0.63zm0.63 0h0.64v-3h-0.64zm0.64 0h0.63v-3h-0.63zm0.63 0h0.64v-3h-0.64zm0.64 0h0.64v-3h-0.64zm0.64 0h0.64v-3h-0.64zm0.64 0h0.63v-3h-0.63zm0.63 0h0.64v-3h-0.64zm0.64 0h0.64v-3h-0.64zm0.64 0h0.63v-3h-0.63zm0.63 0h0.64v-3h-0.64zm0.64 0h0.64v-3h-0.64zm0.64 0h0.64v-3h-0.64zm0.64 0h0.63v-3h-0.63zm0.63 0h0.64v-3h-0.64zm0.64 0h0.64v-3h-0.64zm0.64 0h0.63v-3h-0.63zm0.63 0h0.64v-3h-0.64zm0.64 0h0.64v-3h-0.64zm0.64 0h0.63v-3h-0.63zm0.63 0h0.64v-3h-0.64zm0.64 0h0.64v-3h-0.64zm0.64 0h0.64v-3h-0.64zm0.64 0h0.63v-3h-0.63zm0.63 0h0.64v-3h-0.64zm0.64 0h0.64v-3h-0.64zm0.64 0h0.63v-3h-0.63zm0.63 0h0.64v-3h-0.64zm0.64 0h0.63v-3h-0.63zm0.63 0h0.64v-3h-0.64zm0.64 0h0.64v-3h-0.64zm0.64 0h0.63v-3h-0.63zm0.63 0h0.64v-3h-0.64zm0.64 0h0.63v-3h-0.63zm0.63 0h0.64v-3h-0.64zm0.64 0h0.63v-3h-0.63zm0.63 0h0.64v-3h-0.64zm0.64 0h0.63v-3h-0.63zm0.63 0h0.63v-3h-0.63zm0.63 0h0.64v-3h-0.64zm0.64 0h0.63v-3h-0.63zm0.63 0h0.63v-3h-0.63zm0.63 0h0.64v-3h-0.64zm0.64 0h0.63v-3h-0.63zm0.63 0h0.63v-3h-0.63zm0.63 0h0.63v-3h-0.63zm0.63 0h0.64v-3h-0.64zm0.64 0h0.63v-3h-0.63zm0.63 0h0.63v-3h-0.63zm0.63 0h0.63v-3h-0.63zm0.63 0h0.63v-3h-0.63zm0.63 0h0.63v-3h-0.63zm0.63 0h0.63v-3h-0.63zm0.63 0h0.63v-3h-0.63zm0.63 0h0.63v-3h-0.63zm0.63 0h0.63v-3h-0.63zm0.63 0h0.62v-3h-0.62zm0.62 0h0.63v-3h-0.63zm0.63 0h0.63v-3h-0.63zm0.63 0h0.63v-3h-0.63zm0.63 0h0.62v-3h-0.62zm0.62 0h0.63v-3h-0.63zm0.63 0h0.62v-3h-0.62zm0.62 0h0.63v-3h-0.63zm0.63 0h0.62v-3h-0.62zm0.62 0h0.63v-3h-0.63zm0.63 0h0.62v-3h-0.62zm0.62 0h0.62v-3h-0.62zm0.62 0h0.63v-3h-0.63zm0.63 0h0.62v-3h-0.62zm0.62 0h0.62v-3h-0.62zm0.62 0h0.62v-3h-0.62zm0.62 0h0.62v-3h-0.62zm0.62 0h0.62v-3h-0.62zm0.62 0h0.62v-3h-0.62zm0.62 0h0.62v-3h-0.62zm0.62 0h0.61v-3h-0.61zm0.61 0h0.62v-3h-0.62zm0.62 0h0.62v-3h-0.62zm0.62 0h0.61v-3h-0.61zm0.61 0h0.62v-3h-0.62zm0.62 0h0.61v-3h-0.61zm0.61 0h0.62v-3h-0.62zm0.62 0h0.61v-3h-0.61zm0.61 0h0.61v-3h-0.61zm0.61 0h0.62v-3h-0.62zm0.62 0h0.61v-3h-0.61zm0.61 0h0.61v-3h-0.61zm0.61 0h0.61v-3h-0.61zm0.61 0h0.61v-3h-0.61zm0.61 0h0.6v-3h-0.6zm0.6 0h0.61v-3h-0.61zm0.61 0h0.61v-3h-0.61zm0.61 0h0.6v-3h-0.6zm0.6 0h0.61v-3h-0.61zm0.61 0h0.6v-3h-0.6zm0.6 0h0.61v-3h-0.61zm0.61 0h0.6v-3h-0.6zm0.6 0h0.6v-3h-0.6zm0.6 0h0.6v-3h-0.6zm0.6 0h0.6v-3h-0.6zm0.6 0h0.6v-3h-0.6zm0.6 0h0.6v-3h-0.6zm0.6 0h0.6v-3h-0.6zm0.6 0h0.6v-3h-0.6zm0.6 0h0.59v-3h-0.59zm0.59 0h0.6v-3h-0.6zm0.6 0h0.59v-3h-0.59zm0.59 0h0.59v-3h-0.59zm0.59 0h0.6v-3h-0.6zm0.6 0h0.59v-3h-0.59zm0.59 0h0.59v-3h-0.59zm0.59 0h0.59v-3h-0.59zm0.59 0h0.59v-3h-0.59zm0.59 0h0.58v-3h-0.58zm0.58 0h0.59v-3h-0.59zm0.59 0h0.59v-3h-0.59zm0.59 0h0.58v-3h-0.58zm0.58 0h0.58v-3h-0.58zm0.58 0h0.59v-3h-0.59zm0.59 0h0.58v-3h-0.58zm0.58 0h0.58v-3h-0.58zm0.58 0h0.58v-3h-0.58zm0.58 0h0.58v-3h-0.58zm0.58 0h0.57v-3h-0.57zm0.57 0h0.58v-3h-0.58zm0.58 0h0.58v-3h-0.58zm0.58 0h0.57v-3h-0.57zm0.57 0h0.57v-3h-0.57zm0.57 0h0.57v-3h-0.57zm0.57 0h0.58v-3h-0.58zm0.58 0h0.56v-3h-0.56zm0.56 0h0.57v-3h-0.57zm0.57 0h0.57v-3h-0.57zm0.57 0h0.57v-3h-0.57zm0.57 0h0.56v-3h-0.56zm0.56 0h0.56v-3h-0.56zm0.56 0h0.57v-3h-0.57zm0.57 0h0.56v-3h-0.56zm0.56 0h0.56v-3h-0.56zm0.56 0h0.56v-3h-0.56zm0.56 0h0.56v-3h-0.56zm0.56 0h0.55v-3h-0.55zm0.55 0h0.56v-3h-0.56zm0.56 0h0.55v-3h-0.55zm0.55 0h0.55v-3h-0.55zm0.55 0h0.55v-3h-0.55zm0.55 0h0.55v-3h-0.55zm0.55 0h0.55v-3h-0.55zm0.55 0h0.55v-3h-0.55zm0.55 0h0.55v-3h-0.55zm0.55 0h0.54v-3h-0.54zm0.54 0h0.54v-3h-0.54zm0.54 0h0.55v-3h-0.55zm0.55 0h0.54v-3h-0.54zm0.54 0h0.54v-3h-0.54zm0.54 0h0.53v-3h-0.53zm0.53 0h0.54v-3h-0.54zm0.54 0h0.54v-3h-0.54zm0.54 0h0.53v-3h-0.53zm0.53 0h0.53v-3h-0.53zm0.53 0h0.53v-3h-0.53zm0.53 0h0.53v-3h-0.53zm0.53 0h0.53v-3h-0.53zm0.53 0h0.53v-3h-0.53zm0.53 0h0.52v-3h-0.52zm0.52 0h0.53v-3h-0.53zm0.53 0h0.52v-3h-0.52zm0.52 0h0.52v-3h-0.52zm0.52 0h0.52v-3h-0.52zm0.52 0h0.52v-3h-0.52zm0.52 0h0.51v-3h-0.51zm0.51 0h0.52v-3h-0.52zm0.52 0h0.51v-3h-0.51zm0.51 0h0.51v-3h-0.51zm0.51 0h0.51v-3h-0.51zm0.51 0h0.51v-3h-0.51zm0.51 0h0.51v-3h-0.51zm0.51 0h0.5v-3h-0.5zm0.5 0h0.51v-3h-0.51zm0.51 0h0.5v-3h-0.5zm0.5 0h0.5v-3h-0.5zm0.5 0h0.5v-3h-0.5zm0.5 0h0.49v-3h-0.49zm0.49 0h0.5v-3h-0.5zm0.5 0h0.49v-3h-0.49zm0.49 0h0.49v-3h-0.49zm0.49 0h0.5v-3h-0.5zm0.5 0h0.48v-3h-0.48zm0.48 0h0.49v-3h-0.49zm0.49 0h0.49v-3h-0.49zm0.49 0h0.48v-3h-0.48zm0.48 0h0.48v-3h-0.48zm0.48 0h0.48v-3h-0.48zm0.48 0h0.48v-3h-0.48zm0.48 0h0.48v-3h-0.48zm0.48 0h0.47v-3h-0.47zm0.47 0h0.48v-3h-0.48zm0.48 0h0.47v-3h-0.47zm0.47 0h0.47v-3h-0.47zm0.47 0h0.46v-3h-0.46zm0.46 0h0.47v-3h-0.47zm0.47 0h0.46v-3h-0.46zm0.46 0h0.47v-3h-0.47zm0.47 0h0.46v-3h-0.46zm0.46 0h0.46v-3h-0.46zm0.46 0h0.45v-3h-0.45zm0.45 0h0.46v-3h-0.46zm0.46 0h0.45v-3h-0.45zm0.45 0h0.45v-3h-0.45zm0.45 0h0.45v-3h-0.45zm1.95-1.5v-1h-3v1zm-1.5-2.5h-0.45v3h0.45zm-0.45 0h-0.45v3h0.45zm-0.45 0h-0.45v3h0.45zm-0.45 0h-0.46v3h0.46zm-0.46 0h-0.45v3h0.45zm-0.45 0h-0.46v3h0.46zm-0.46 0h-0.46v3h0.46zm-0.46 0h-0.47v3h0.47zm-0.47 0h-0.46v3h0.46zm-0.46 0h-0.47v3h0.47zm-0.47 0h-0.46v3h0.46zm-0.46 0h-0.47v3h0.47zm-0.47 0h-0.47v3h0.47zm-0.47 0h-0.48v3h0.48zm-0.48 0h-0.47v3h0.47zm-0.47 0h-0.48v3h0.48zm-0.48 0h-0.48v3h0.48zm-0.48 0h-0.48v3h0.48zm-0.48 0h-0.48v3h0.48zm-0.48 0h-0.48v3h0.48zm-0.48 0h-0.49v3h0.49zm-0.49 0h-0.49v3h0.49zm-0.49 0h-0.48v3h0.48zm-0.48 0h-0.5v3h0.5zm-0.5 0h-0.49v3h0.49zm-0.49 0h-0.49v3h0.49zm-0.49 0h-0.5v3h0.5zm-0.5 0h-0.49v3h0.49zm-0.49 0h-0.5v3h0.5zm-0.5 0h-0.5v3h0.5zm-0.5 0h-0.5v3h0.5zm-0.5 0h-0.51v3h0.51zm-0.51 0h-0.5v3h0.5zm-0.5 0h-0.51v3h0.51zm-0.51 0h-0.51v3h0.51zm-0.51 0h-0.51v3h0.51zm-0.51 0h-0.51v3h0.51zm-0.51 0h-0.51v3h0.51zm-0.51 0h-0.52v3h0.52zm-0.52 0h-0.51v3h0.51zm-0.51 0h-0.52v3h0.52zm-0.52 0h-0.52v3h0.52zm-0.52 0h-0.52v3h0.52zm-0.52 0h-0.52v3h0.52zm-0.52 0h-0.53v3h0.53zm-0.53 0h-0.52v3h0.52zm-0.52 0h-0.53v3h0.53zm-0.53 0h-0.53v3h0.53zm-0.53 0h-0.53v3h0.53zm-0.53 0h-0.53v3h0.53zm-0.53 0h-0.53v3h0.53zm-0.53 0h-0.53v3h0.53zm-0.53 0h-0.54v3h0.54zm-0.54 0h-0.54v3h0.54zm-0.54 0h-0.53v3h0.53zm-0.53 0h-0.54v3h0.54zm-0.54 0h-0.54v3h0.54zm-0.54 0h-0.55v3h0.55zm-0.55 0h-0.54v3h0.54zm-0.54 0h-0.54v3h0.54zm-0.54 0h-0.55v3h0.55zm-0.55 0h-0.55v3h0.55zm-0.55 0h-0.55v3h0.55zm-0.55 0h-0.55v3h0.55zm-0.55 0h-0.55v3h0.55zm-0.55 0h-0.55v3h0.55zm-0.55 0h-0.55v3h0.55zm-0.55 0h-0.56v3h0.56zm-0.56 0h-0.55v3h0.55zm-0.55 0h-0.56v3h0.56zm-0.56 0h-0.56v3h0.56zm-0.56 0h-0.56v3h0.56zm-0.56 0h-0.56v3h0.56zm-0.56 0h-0.57v3h0.57zm-0.57 0h-0.56v3h0.56zm-0.56 0h-0.56v3h0.56zm-0.56 0h-0.57v3h0.57zm-0.57 0h-0.57v3h0.57zm-0.57 0h-0.57v3h0.57zm-0.57 0h-0.56v3h0.56zm-0.56 0h-0.58v3h0.58zm-0.58 0h-0.57v3h0.57zm-0.57 0h-0.57v3h0.57zm-0.57 0h-0.57v3h0.57zm-0.57 0h-0.58v3h0.58zm-0.58 0h-0.58v3h0.58zm-0.58 0h-0.57v3h0.57zm-0.57 0h-0.58v3h0.58zm-0.58 0h-0.58v3h0.58zm-0.58 0h-0.58v3h0.58zm-0.58 0h-0.58v3h0.58zm-0.58 0h-0.59v3h0.59zm-0.59 0h-0.58v3h0.58zm-0.58 0h-0.58v3h0.58zm-0.58 0h-0.59v3h0.59zm-0.59 0h-0.59v3h0.59zm-0.59 0h-0.58v3h0.58zm-0.58 0h-0.59v3h0.59zm-0.59 0h-0.59v3h0.59zm-0.59 0h-0.59v3h0.59zm-0.59 0h-0.59v3h0.59zm-0.59 0h-0.6v3h0.6zm-0.6 0h-0.59v3h0.59zm-0.59 0h-0.59v3h0.59zm-0.59 0h-0.6v3h0.6zm-0.6 0h-0.59v3h0.59zm-0.59 0h-0.6v3h0.6zm-0.6 0h-0.6v3h0.6zm-0.6 0h-0.6v3h0.6zm-0.6 0h-0.6v3h0.6zm-0.6 0h-0.6v3h0.6zm-0.6 0h-0.6v3h0.6zm-0.6 0h-0.6v3h0.6zm-0.6 0h-0.6v3h0.6zm-0.6 0h-0.61v3h0.61zm-0.61 0h-0.6v3h0.6zm-0.6 0h-0.61v3h0.61zm-0.61 0h-0.6v3h0.6zm-0.6 0h-0.61v3h0.61zm-0.61 0h-0.61v3h0.61zm-0.61 0h-0.6v3h0.6zm-0.6 0h-0.61v3h0.61zm-0.61 0h-0.61v3h0.61zm-0.61 0h-0.61v3h0.61zm-0.61 0h-0.61v3h0.61zm-0.61 0h-0.62v3h0.62zm-0.62 0h-0.61v3h0.61zm-0.61 0h-0.61v3h0.61zm-0.61 0h-0.62v3h0.62zm-0.62 0h-0.61v3h0.61zm-0.61 0h-0.62v3h0.62zm-0.62 0h-0.61v3h0.61zm-0.61 0h-0.62v3h0.62zm-0.62 0h-0.62v3h0.62zm-0.62 0h-0.61v3h0.61zm-0.61 0h-0.62v3h0.62zm-0.62 0h-0.62v3h0.62zm-0.62 0h-0.62v3h0.62zm-0.62 0h-0.62v3h0.62zm-0.62 0h-0.62v3h0.62zm-0.62 0h-0.62v3h0.62zm-0.62 0h-0.62v3h0.62zm-0.62 0h-0.63v3h0.63zm-0.63 0h-0.62v3h0.62zm-0.62 0h-0.62v3h0.62zm-0.62 0h-0.63v3h0.63zm-0.63 0h-0.62v3h0.62zm-0.62 0h-0.63v3h0.63zm-0.63 0h-0.62v3h0.62zm-0.62 0h-0.63v3h0.63zm-0.63 0h-0.62v3h0.62zm-0.62 0h-0.63v3h0.63zm-0.63 0h-0.63v3h0.63zm-0.63 0h-0.63v3h0.63zm-0.63 0h-0.62v3h0.62zm-0.62 0h-0.63v3h0.63zm-0.63 0h-0.63v3h0.63zm-0.63 0h-0.63v3h0.63zm-0.63 0h-0.63v3h0.63zm-0.63 0h-0.63v3h0.63zm-0.63 0h-0.63v3h0.63zm-0.63 0h-0.63v3h0.63zm-0.63 0h-0.63v3h0.63zm-0.63 0h-0.63v3h0.63zm-0.63 0h-0.64v3h0.64zm-0.64 0h-0.63v3h0.63zm-0.63 0h-0.63v3h0.63zm-0.63 0h-0.63v3h0.63zm-0.63 0h-0.64v3h0.64zm-0.64 0h-0.63v3h0.63zm-0.63 0h-0.63v3h0.63zm-0.63 0h-0.64v3h0.64zm-0.64 0h-0.63v3h0.63zm-0.63 0h-0.63v3h0.63zm-0.63 0h-0.64v3h0.64zm-0.64 0h-0.63v3h0.63zm-0.63 0h-0.64v3h0.64zm-0.64 0h-0.63v3h0.63zm-0.63 0h-0.64v3h0.64zm-0.64 0h-0.63v3h0.63zm-0.63 0h-0.64v3h0.64zm-0.64 0h-0.64v3h0.64zm-0.64 0h-0.63v3h0.63zm-0.63 0h-0.64v3h0.64zm-0.64 0h-0.63v3h0.63zm-0.63 0h-0.64v3h0.64zm-0.64 0h-0.64v3h0.64zm-0.64 0h-0.63v3h0.63zm-0.63 0h-0.64v3h0.64zm-0.64 0h-0.64v3h0.64zm-0.64 0h-0.64v3h0.64zm-0.64 0h-0.63v3h0.63zm-0.63 0h-0.64v3h0.64zm-0.64 0h-0.64v3h0.64zm-0.64 0h-0.63v3h0.63zm-0.63 0h-0.64v3h0.64zm-0.64 0h-0.64v3h0.64zm-0.64 0h-0.63v3h0.63zm-0.63 0h-0.64v3h0.64zm-0.64 0h-0.64v3h0.64zm-0.64 0h-0.64v3h0.64zm-0.64 0h-0.63v3h0.63zm-0.63 0h-0.64v3h0.64zm-0.64 0h-0.64v3h0.64zm-0.64 0h-0.63v3h0.63zm-0.63 0h-0.64v3h0.64zm-0.64 0h-0.64v3h0.64zm-0.64 0h-0.64v3h0.64zm-0.64 0h-0.63v3h0.63zm-0.63 0h-0.64v3h0.64zm-0.64 0h-0.63v3h0.63zm-0.63 0h-0.64v3h0.64zm-0.64 0h-0.64v3h0.64zm-0.64 0h-0.63v3h0.63zm-0.63 0h-0.64v3h0.64zm-0.64 0h-0.63v3h0.63zm-0.63 0h-0.64v3h0.64zm-0.64 0h-0.64v3h0.64zm-0.64 0h-0.63v3h0.63zm-0.63 0h-0.64v3h0.64zm-0.64 0h-0.63v3h0.63zm-0.63 0h-0.63v3h0.63zm-0.63 0h-0.64v3h0.64zm-0.64 0h-0.63v3h0.63zm-0.63 0h-0.64v3h0.64zm-0.64 0h-0.63v3h0.63zm-0.63 0h-0.63v3h0.63zm-0.63 0h-0.64v3h0.64zm-0.64 0h-0.63v3h0.63zm-0.63 0h-0.63v3h0.63zm-0.63 0h-0.63v3h0.63zm-0.63 0h-0.64v3h0.64zm-0.64 0h-0.63v3h0.63zm-0.63 0h-0.63v3h0.63zm-0.63 0h-0.63v3h0.63zm-0.63 0h-0.63v3h0.63zm-0.63 0h-0.63v3h0.63zm-0.63 0h-0.63v3h0.63zm-0.63 0h-0.63v3h0.63zm-0.63 0h-0.63v3h0.63zm-0.63 0h-0.63v3h0.63zm-0.63 0h-0.62v3h0.62zm-0.62 0h-0.63v3h0.63zm-0.63 0h-0.63v3h0.63zm-0.63 0h-0.63v3h0.63zm-0.63 0h-0.62v3h0.62zm-0.62 0h-0.63v3h0.63zm-0.63 0h-0.62v3h0.62zm-0.62 0h-0.63v3h0.63zm-0.63 0h-0.62v3h0.62zm-0.62 0h-0.63v3h0.63zm-0.63 0h-0.62v3h0.62zm-0.62 0h-0.62v3h0.62zm-0.62 0h-0.62v3h0.62zm-0.62 0h-0.63v3h0.63zm-0.63 0h-0.62v3h0.62zm-0.62 0h-0.62v3h0.62zm-0.62 0h-0.62v3h0.62zm-0.62 0h-0.62v3h0.62zm-0.62 0h-0.62v3h0.62zm-0.62 0h-0.62v3h0.62zm-0.62 0h-0.61v3h0.61zm-0.61 0h-0.62v3h0.62zm-0.62 0h-0.62v3h0.62zm-0.62 0h-0.61v3h0.61zm-0.61 0h-0.62v3h0.62zm-0.62 0h-0.61v3h0.61zm-0.61 0h-0.62v3h0.62zm-0.62 0h-0.61v3h0.61zm-0.61 0h-0.61v3h0.61zm-0.61 0h-0.61v3h0.61zm-0.61 0h-0.61v3h0.61zm-0.61 0h-0.61v3h0.61zm-0.61 0h-0.61v3h0.61zm-0.61 0h-0.61v3h0.61zm-0.61 0h-0.61v3h0.61zm-0.61 0h-0.61v3h0.61zm-0.61 0h-0.61v3h0.61zm-0.61 0h-0.6v3h0.6zm-0.6 0h-0.61v3h0.61zm-0.61 0h-0.6v3h0.6zm-0.6 0h-0.6v3h0.6zm-0.6 0h-0.61v3h0.61zm-0.61 0h-0.6v3h0.6zm-0.6 0h-0.6v3h0.6zm-0.6 0h-0.6v3h0.6zm-0.6 0h-0.6v3h0.6zm-0.6 0h-0.6v3h0.6zm-0.6 0h-0.6v3h0.6zm-0.6 0h-0.59v3h0.59zm-0.59 0h-0.6v3h0.6zm-0.6 0h-0.59v3h0.59zm-0.59 0h-0.6v3h0.6zm-0.6 0h-0.59v3h0.59zm-0.59 0h-0.59v3h0.59zm-0.59 0h-0.59v3h0.59zm-0.59 0h-0.6v3h0.6zm-0.6 0h-0.58v3h0.58zm-0.58 0h-0.59v3h0.59zm-0.59 0h-0.59v3h0.59zm-0.59 0h-0.59v3h0.59zm-0.59 0h-0.58v3h0.58zm-0.58 0h-0.59v3h0.59zm-0.59 0h-0.58v3h0.58zm-0.58 0h-0.58v3h0.58zm-0.58 0h-0.58v3h0.58zm-0.58 0h-0.58v3h0.58zm-0.58 0h-0.58v3h0.58zm-0.58 0h-0.58v3h0.58zm-0.58 0h-0.58v3h0.58zm-0.58 0h-0.58v3h0.58zm-0.58 0h-0.57v3h0.57zm-0.57 0h-0.57v3h0.57zm-0.57 0h-0.58v3h0.58zm-0.58 0h-0.57v3h0.57zm-0.57 0h-0.57v3h0.57zm-0.57 0h-0.57v3h0.57zm-0.57 0h-0.57v3h0.57zm-0.57 0h-0.56v3h0.56zm-0.56 0h-0.57v3h0.57zm-0.57 0h-0.57v3h0.57zm-0.57 0h-0.56v3h0.56zm-0.56 0h-0.56v3h0.56zm-0.56 0h-0.56v3h0.56zm-0.56 0h-0.56v3h0.56zm-0.56 0h-0.56v3h0.56zm-0.56 0h-0.56v3h0.56zm-0.56 0h-0.56v3h0.56zm-0.56 0h-0.55v3h0.55zm-0.55 0h-0.55v3h0.55zm-0.55 0h-0.56v3h0.56zm-0.56 0h-0.55v3h0.55zm-0.55 0h-0.55v3h0.55zm-0.55 0h-0.55v3h0.55zm-0.55 0h-0.54v3h0.54zm-0.54 0h-0.55v3h0.55zm-0.55 0h-0.54v3h0.54zm-0.54 0h-0.55v3h0.55zm-0.55 0h-0.54v3h0.54zm-0.54 0h-0.54v3h0.54zm-0.54 0h-0.54v3h0.54zm-0.54 0h-0.54v3h0.54zm-0.54 0h-0.53v3h0.53zm-0.53 0h-0.54v3h0.54zm-0.54 0h-0.53v3h0.53zm-0.53 0h-0.53v3h0.53zm-0.53 0h-0.54v3h0.54zm-0.54 0h-0.52v3h0.52zm-0.52 0h-0.53v3h0.53zm-0.53 0h-0.53v3h0.53zm-0.53 0h-0.52v3h0.52zm-0.52 0h-0.53v3h0.53zm-0.53 0h-0.52v3h0.52zm-0.52 0h-0.52v3h0.52zm-0.52 0h-0.52v3h0.52zm-0.52 0h-0.52v3h0.52zm-0.52 0h-0.51v3h0.51zm-0.51 0h-0.52v3h0.52zm-0.52 0h-0.51v3h0.51zm-0.51 0h-0.51v3h0.51zm-0.51 0h-0.51v3h0.51zm-0.51 0h-0.51v3h0.51zm-0.51 0h-0.51v3h0.51zm-0.51 0h-0.5v3h0.5zm-0.5 0h-0.51v3h0.51zm-0.51 0h-0.5v3h0.5zm-0.5 0h-0.5v3h0.5zm-0.5 0h-0.5v3h0.5zm-0.5 0h-0.49v3h0.49zm-0.49 0h-0.5v3h0.5zm-0.5 0h-0.49v3h0.49zm-0.49 0h-0.49v3h0.49zm-0.49 0h-0.49v3h0.49zm-0.49 0h-0.49v3h0.49zm-0.49 0h-0.49v3h0.49zm-0.49 0h-0.48v3h0.48zm-0.48 0h-0.49v3h0.49zm-0.49 0h-0.48v3h0.48zm-0.48 0h-0.48v3h0.48zm-0.48 0h-0.48v3h0.48zm-0.48 0h-0.48v3h0.48zm-0.48 0h-0.47v3h0.47zm-0.47 0h-0.47v3h0.47zm-0.47 0h-0.47v3h0.47zm-0.47 0h-0.47v3h0.47zm-0.47 0h-0.47v3h0.47zm-0.47 0h-0.47v3h0.47zm-0.47 0h-0.46v3h0.46zm-0.46 0h-0.46v3h0.46zm-0.46 0h-0.46v3h0.46zm-0.46 0h-0.46v3h0.46zm-0.46 0h-0.46v3h0.46zm-0.46 0h-0.45v3h0.45zm-0.45 0h-0.46v3h0.46zm-0.46 0h-0.45v3h0.45zm-0.45 0h-0.45v3h0.45zm-0.45 0h-0.44v3h0.44zm-0.44 0h-0.45v3h0.45zm-0.45 0h-0.44v3h0.44zm-0.44 0h-0.44v3h0.44zm-0.44 0h-0.44v3h0.44zm-0.44 0h-0.44v3h0.44zm-0.44 0h-0.44v3h0.44zm-0.44 0h-0.43v3h0.43zm-0.43 0h-0.43v3h0.43zm-0.43 0h-0.43v3h0.43zm-0.43 0h-0.43v3h0.43zm-0.43 0h-0.42v3h0.42zm-0.42 0h-0.43v3h0.43zm-0.43 0h-0.42v3h0.42zm-0.42 0h-0.42v3h0.42zm-0.42 0h-0.41v3h0.41zm-0.41 0h-0.42v3h0.42zm-0.42 0h-0.41v3h0.41zm-0.41 0h-0.41v3h0.41zm-0.41 0h-0.41v3h0.41zm-0.41 0h-0.41v3h0.41zm-0.41 0h-0.41v3h0.41zm-0.41 0h-0.4v3h0.4zm-0.4 0h-0.4v3h0.4zm-0.4 0h-0.4v3h0.4zm-0.4 0h-0.39v3h0.39zm-0.39 0h-0.4v3h0.4zm-0.4 0h-0.39v3h0.39zm-0.39 0h-0.39v3h0.39zm-0.39 0h-0.39v3h0.39zm-0.39 0h-0.38v3h0.38zm-0.38 0h-0.39v3h0.39zm-0.39 0h-0.38v3h0.38zm-0.38 0h-0.37v3h0.37zm-0.37 0h-0.38v3h0.38zm-0.38 0h-0.38v3h0.38zm-0.38 0h-0.37v3h0.37zm-0.37 0h-0.37v3h0.37zm-0.37 0h-0.36v3h0.36zm-0.36 0h-0.37v3h0.37zm-0.37 0h-0.36v3h0.36zm-0.36 0h-0.36v3h0.36zm-0.36 0h-0.36v3h0.36zm-0.36 0h-0.36v3h0.36zm-0.36 0h-0.35v3h0.35zm-0.35 0h-0.35v3h0.35zm-0.35 0h-0.35v3h0.35zm-0.35 0h-0.35v3h0.35zm-0.35 0h-0.34v3h0.34zm-0.34 0h-0.34v3h0.34zm-0.34 0h-0.34v3h0.34zm-0.34 0h-0.34v3h0.34zm-0.34 0h-0.33v3h0.33zm-0.33 0h-0.34v3h0.34zm-0.34 0h-0.33v3h0.33zm-0.33 0h-0.32v3h0.32zm-0.32 0h-0.33v3h0.33zm-0.33 0h-0.32v3h0.32zm-0.32 0h-0.32v3h0.32zm-0.32 0h-0.32v3h0.32zm-0.32 0h-0.31v3h0.31zm-0.31 0h-0.32v3h0.32zm-0.32 0h-0.31v3h0.31zm-0.31 0h-0.3v3h0.3zm-0.3 0h-0.31v3h0.31zm-0.31 0h-0.3v3h0.3zm-0.3 0h-0.3v3h0.3zm-0.3 0h-0.3v3h0.3zm-0.3 0h-0.29v3h0.29zm-0.29 0h-0.29v3h0.29zm-0.29 0h-0.29v3h0.29zm-0.29 0h-0.29v3h0.29zm-0.29 0h-0.28v3h0.28zm-0.28 0h-0.29v3h0.29zm-0.29 0h-0.28v3h0.28zm-0.28 0h-0.27v3h0.27zm-0.27 0h-0.28v3h0.28zm-0.28 0h-0.27v3h0.27zm-0.27 0h-0.27v3h0.27zm-0.27 0h-0.26v3h0.26zm-0.26 0h-0.26v3h0.26zm-0.26 0h-0.26v3h0.26zm-0.26 0h-0.26v3h0.26zm-0.26 0h-0.26v3h0.26zm-0.26 0h-0.25v3h0.25zm-0.25 0h-0.25v3h0.25zm-0.25 0h-0.25v3h0.25zm-0.25 0h-0.24v3h0.24zm-0.24 0h-0.24v3h0.24zm-0.24 0h-0.24v3h0.24zm-0.24 0h-0.24v3h0.24zm-0.24 0h-0.23v3h0.23zm-0.23 0h-0.23v3h0.23zm-0.23 0h-0.23v3h0.23zm-0.23 0h-0.22v3h0.22zm-0.22 0h-0.22v3h0.22zm-0.22 0h-0.22v3h0.22zm-0.22 0h-0.22v3h0.22zm-0.22 0h-0.21v3h0.21zm-0.21 0h-0.21v3h0.21zm-0.21 0h-0.21v3h0.21zm-0.21 0h-0.2v3h0.2zm-0.2 0h-0.21v3h0.21zm-0.21 0h-0.19v3h0.19zm-0.19 0h-0.2v3h0.2zm-0.2 0h-0.19v3h0.19zm-0.19 0h-0.19v3h0.19zm-0.19 0h-0.19v3h0.19zm-0.19 0h-0.18v3h0.18zm-0.18 0h-0.19v3h0.19zm-0.19 0h-0.17v3h0.17zm-0.17 0h-0.18v3h0.18zm-0.18 0h-0.17v3h0.17zm-0.17 0h-0.17v3h0.17zm-0.17 0h-0.17v3h0.17zm-0.17 0h-0.16v3h0.16zm-0.16 0c-4.64 0-10.05 1.2618-16 3.3579l1 2.8293c5.81-2.0486 10.85-3.1872 15-3.1872zm-16 3.3579c-5.96 2.1037-12.59 5.0936-19.71 8.6501l1.34 2.6833c7.07-3.5304 13.57-6.4592 19.37-8.5041zm-19.71 8.6501c-10.14 5.0705-21.36 11.344-33.14 17.931l1.46 2.6186c11.8-6.5971 22.96-12.833 33.02-17.867zm-33.14 17.931c-4.75 2.6522-9.59 5.3566-14.49 8.059l1.45 2.6274c4.91-2.7075 9.76-5.4162 14.5-8.0678zm-14.49 8.059c-17.11 9.4307-34.99 18.819-52.41 25.85l1.12 2.7818c17.59-7.1018 35.61-16.564 52.74-26.005zm-52.41 25.85c-17.43 7.0388-34.25 11.651-49.25 11.651v3c15.56 0 32.79-4.7718 50.37-11.87zm-49.25 11.651h-542v3h542zm-592.37-8.8696c17.58 7.0978 34.812 11.87 50.374 11.87v-3c-15.001 0-31.817-4.6126-49.251-11.651zm-52.734-26.005c17.132 9.4409 35.144 18.903 52.734 26.005l1.123-2.7818c-17.414-7.0309-35.296-16.42-52.409-25.85zm-14.499-8.0664c4.742 2.6511 9.587 5.3594 14.499 8.0664l1.448-2.6274c-4.903-2.702-9.74-5.4059-14.483-8.0576zm6e-3 0.0031 2e-3 0.0014 1.448-2.6276-3e-3 -0.0014zm-9e-3 -0.0049 1e-3 8e-4 1.463-2.6194-2e-3 -7e-4zm-33.025-17.866c10.067 5.0332 21.223 11.269 33.024 17.866l1.464-2.6187c-11.785-6.5876-23.006-12.86-33.146-17.931zm-19.365-8.5041c5.799 2.0448 12.305 4.9737 19.365 8.5041l1.342-2.6833c-7.113-3.5564-13.743-6.5464-19.71-8.6501zm-15-3.1872c4.148 0 9.189 1.1386 15 3.1872l0.997-2.8293c-5.945-2.0961-11.356-3.3579-15.997-3.3579zm-0.163 0h0.163v-3h-0.163zm-0.166 0h0.166v-3h-0.166zm-0.17 0h0.17v-3h-0.17zm-0.172 0h0.172v-3h-0.172zm-0.175 0h0.175v-3h-0.175zm-0.178 0h0.178v-3h-0.178zm-0.182 0h0.182v-3h-0.182zm-0.184 0h0.184v-3h-0.184zm-0.187 0h0.187v-3h-0.187zm-0.19 0h0.19v-3h-0.19zm-0.193 0h0.193v-3h-0.193zm-0.196 0h0.196v-3h-0.196zm-0.199 0h0.199v-3h-0.199zm-0.201 0h0.201v-3h-0.201zm-0.205 0h0.205v-3h-0.205zm-0.208 0h0.208v-3h-0.208zm-0.21 0h0.21v-3h-0.21zm-0.213 0h0.213v-3h-0.213zm-0.216 0h0.216v-3h-0.216zm-0.219 0h0.219v-3h-0.219zm-0.222 0h0.222v-3h-0.222zm-0.224 0h0.224v-3h-0.224zm-0.228 0h0.228v-3h-0.228zm-0.23 0h0.23v-3h-0.23zm-0.233 0h0.233v-3h-0.233zm-0.236 0h0.236v-3h-0.236zm-0.239 0h0.239v-3h-0.239zm-0.241 0h0.241v-3h-0.241zm-0.244 0h0.244v-3h-0.244zm-0.247 0h0.247v-3h-0.247zm-0.249 0h0.249v-3h-0.249zm-0.253 0h0.253v-3h-0.253zm-0.255 0h0.255v-3h-0.255zm-0.258 0h0.258v-3h-0.258zm-0.26 0h0.26v-3h-0.26zm-0.263 0h0.263v-3h-0.263zm-0.266 0h0.266v-3h-0.266zm-0.268 0h0.268v-3h-0.268zm-0.272 0h0.272v-3h-0.272zm-0.273 0h0.273v-3h-0.273zm-0.277 0h0.277v-3h-0.277zm-0.279 0h0.279v-3h-0.279zm-0.282 0h0.282v-3h-0.282zm-0.284 0h0.284v-3h-0.284zm-0.287 0h0.287v-3h-0.287zm-0.289 0h0.289v-3h-0.289zm-0.292 0h0.292v-3h-0.292zm-0.295 0h0.295v-3h-0.295zm-0.297 0h0.297v-3h-0.297zm-0.3 0h0.3v-3h-0.3zm-0.303 0h0.303v-3h-0.303zm-0.304 0h0.304v-3h-0.304zm-0.308 0h0.308v-3h-0.308zm-0.31 0h0.31v-3h-0.31zm-0.312 0h0.312v-3h-0.312zm-0.315 0h0.315v-3h-0.315zm-0.318 0h0.318v-3h-0.318zm-0.319 0h0.319v-3h-0.319zm-0.323 0h0.323v-3h-0.323zm-0.325 0h0.325v-3h-0.325zm-0.327 0h0.327v-3h-0.327zm-0.33 0h0.33v-3h-0.33zm-0.332 0h0.332v-3h-0.332zm-0.334 0h0.334v-3h-0.334zm-0.337 0h0.337v-3h-0.337zm-0.34 0h0.34v-3h-0.34zm-0.341 0h0.341v-3h-0.341zm-0.345 0h0.345v-3h-0.345zm-0.346 0h0.346v-3h-0.346zm-0.349 0h0.349v-3h-0.349zm-0.351 0h0.351v-3h-0.351zm-0.354 0h0.354v-3h-0.354zm-0.356 0h0.356v-3h-0.356zm-0.358 0h0.358v-3h-0.358zm-0.36 0h0.36v-3h-0.36zm-0.363 0h0.363v-3h-0.363zm-0.365 0h0.365v-3h-0.365zm-0.368 0h0.368v-3h-0.368zm-0.37 0h0.37v-3h-0.37zm-0.372 0h0.372v-3h-0.372zm-0.374 0h0.374v-3h-0.374zm-0.376 0h0.376v-3h-0.376zm-0.379 0h0.379v-3h-0.379zm-0.381 0h0.381v-3h-0.381zm-0.383 0h0.383v-3h-0.383zm-0.386 0h0.386v-3h-0.386zm-0.387 0h0.387v-3h-0.387zm-0.39 0h0.39v-3h-0.39zm-0.392 0h0.392v-3h-0.392zm-0.394 0h0.394v-3h-0.394zm-0.396 0h0.396v-3h-0.396zm-0.399 0h0.399v-3h-0.399zm-0.4 0h0.4v-3h-0.4zm-0.403 0h0.403v-3h-0.403zm-0.405 0h0.405v-3h-0.405zm-0.407 0h0.407v-3h-0.407zm-0.409 0h0.409v-3h-0.409zm-0.411 0h0.411v-3h-0.411zm-0.413 0h0.413v-3h-0.413zm-0.415 0h0.415v-3h-0.415zm-0.418 0h0.418v-3h-0.418zm-0.419 0h0.419v-3h-0.419zm-0.422 0h0.422v-3h-0.422zm-0.423 0h0.423v-3h-0.423zm-0.425 0h0.425v-3h-0.425zm-0.428 0h0.428v-3h-0.428zm-0.43 0h0.43v-3h-0.43zm-0.431 0h0.431v-3h-0.431zm-0.434 0h0.434v-3h-0.434zm-0.435 0h0.435v-3h-0.435zm-0.438 0h0.438v-3h-0.438zm-0.439 0h0.439v-3h-0.439zm-0.441 0h0.441v-3h-0.441zm-0.444 0h0.444v-3h-0.444zm-0.445 0h0.445v-3h-0.445zm-0.447 0h0.447v-3h-0.447zm-0.449 0h0.449v-3h-0.449zm-0.451 0h0.451v-3h-0.451zm-0.453 0h0.453v-3h-0.453zm-0.455 0h0.455v-3h-0.455zm-0.456 0h0.456v-3h-0.456zm-0.459 0h0.459v-3h-0.459zm-0.46 0h0.46v-3h-0.46zm-0.462 0h0.462v-3h-0.462zm-0.464 0h0.464v-3h-0.464zm-0.466 0h0.466v-3h-0.466zm-0.468 0h0.468v-3h-0.468zm-0.469 0h0.469v-3h-0.469zm-0.471 0h0.471v-3h-0.471zm-0.473 0h0.473v-3h-0.473zm-0.475 0h0.475v-3h-0.475zm-0.476 0h0.476v-3h-0.476zm-0.479 0h0.479v-3h-0.479zm-0.48 0h0.48v-3h-0.48zm-0.482 0h0.482v-3h-0.482zm-0.483 0h0.483v-3h-0.483zm-0.485 0h0.485v-3h-0.485zm-0.487 0h0.487v-3h-0.487zm-0.489 0h0.489v-3h-0.489zm-0.49 0h0.49v-3h-0.49zm-0.492 0h0.492v-3h-0.492zm-0.494 0h0.494v-3h-0.494zm-0.495 0h0.495v-3h-0.495zm-0.497 0h0.497v-3h-0.497zm-0.499 0h0.499v-3h-0.499zm-0.5 0h0.5v-3h-0.5zm-0.502 0h0.502v-3h-0.502zm-0.503 0h0.503v-3h-0.503zm-0.505 0h0.505v-3h-0.505zm-0.507 0h0.507v-3h-0.507zm-0.508 0h0.508v-3h-0.508zm-0.51 0h0.51v-3h-0.51zm-0.512 0h0.512v-3h-0.512zm-0.512 0h0.512v-3h-0.512zm-0.515 0h0.515v-3h-0.515zm-0.516 0h0.516v-3h-0.516zm-0.517 0h0.517v-3h-0.517zm-0.52 0h0.52v-3h-0.52zm-0.52 0h0.52v-3h-0.52zm-0.522 0h0.522v-3h-0.522zm-0.524 0h0.524v-3h-0.524zm-0.525 0h0.525v-3h-0.525zm-0.526 0h0.526v-3h-0.526zm-0.528 0h0.528v-3h-0.528zm-0.529 0h0.529v-3h-0.529zm-0.531 0h0.531v-3h-0.531zm-0.532 0h0.532v-3h-0.532zm-0.534 0h0.534v-3h-0.534zm-0.535 0h0.535v-3h-0.535zm-0.537 0h0.537v-3h-0.537zm-0.538 0h0.538v-3h-0.538zm-0.539 0h0.539v-3h-0.539zm-0.54 0h0.54v-3h-0.54zm-0.542 0h0.542v-3h-0.542zm-0.544 0h0.544v-3h-0.544zm-0.544 0h0.544v-3h-0.544zm-0.546 0h0.546v-3h-0.546zm-0.548 0h0.548v-3h-0.548zm-0.548 0h0.548v-3h-0.548zm-0.55 0h0.55v-3h-0.55zm-0.551 0h0.551v-3h-0.551zm-0.553 0h0.553v-3h-0.553zm-0.554 0h0.554v-3h-0.554zm-0.555 0h0.555v-3h-0.555zm-0.556 0h0.556v-3h-0.556zm-0.557 0h0.557v-3h-0.557zm-0.559 0h0.559v-3h-0.559zm-0.56 0h0.56v-3h-0.56zm-0.561 0h0.561v-3h-0.561zm-0.563 0h0.563v-3h-0.563zm-0.563 0h0.563v-3h-0.563zm-0.565 0h0.565v-3h-0.565zm-0.566 0h0.566v-3h-0.566zm-0.567 0h0.567v-3h-0.567zm-0.569 0h0.569v-3h-0.569zm-0.569 0h0.569v-3h-0.569zm-0.571 0h0.571v-3h-0.571zm-0.571 0h0.571v-3h-0.571zm-0.573 0h0.573v-3h-0.573zm-0.574 0h0.574v-3h-0.574zm-0.575 0h0.575v-3h-0.575zm-0.576 0h0.576v-3h-0.576zm-0.578 0h0.578v-3h-0.578zm-0.578 0h0.578v-3h-0.578zm-0.579 0h0.579v-3h-0.579zm-0.581 0h0.581v-3h-0.581zm-0.581 0h0.581v-3h-0.581zm-0.582 0h0.582v-3h-0.582zm-0.584 0h0.584v-3h-0.584zm-0.584 0h0.584v-3h-0.584zm-0.586 0h0.586v-3h-0.586zm-0.586 0h0.586v-3h-0.586zm-0.588 0h0.588v-3h-0.588zm-0.588 0h0.588v-3h-0.588zm-0.59 0h0.59v-3h-0.59zm-0.59 0h0.59v-3h-0.59zm-0.591 0h0.591v-3h-0.591zm-0.593 0h0.593v-3h-0.593zm-0.593 0h0.593v-3h-0.593zm-0.594 0h0.594v-3h-0.594zm-0.595 0h0.595v-3h-0.595zm-0.596 0h0.596v-3h-0.596zm-0.597 0h0.597v-3h-0.597zm-0.597 0h0.597v-3h-0.597zm-0.599 0h0.599v-3h-0.599zm-0.599 0h0.599v-3h-0.599zm-0.601 0h0.601v-3h-0.601zm-0.601 0h0.601v-3h-0.601zm-0.602 0h0.602v-3h-0.602zm-0.602 0h0.602v-3h-0.602zm-0.604 0h0.604v-3h-0.604zm-0.604 0h0.604v-3h-0.604zm-0.605 0h0.605v-3h-0.605zm-0.606 0h0.606v-3h-0.606zm-0.607 0h0.607v-3h-0.607zm-0.607 0h0.607v-3h-0.607zm-0.609 0h0.609v-3h-0.609zm-0.608 0h0.608v-3h-0.608zm-0.61 0h0.61v-3h-0.61zm-0.611 0h0.611v-3h-0.611zm-0.611 0h0.611v-3h-0.611zm-0.611 0h0.611v-3h-0.611zm-0.613 0h0.613v-3h-0.613zm-0.613 0h0.613v-3h-0.613zm-0.614 0h0.614v-3h-0.614zm-0.615 0h0.615v-3h-0.615zm-0.615 0h0.615v-3h-0.615zm-0.616 0h0.616v-3h-0.616zm-0.616 0h0.616v-3h-0.616zm-0.617 0h0.617v-3h-0.617zm-0.618 0h0.618v-3h-0.618zm-0.618 0h0.618v-3h-0.618zm-0.619 0h0.619v-3h-0.619zm-0.62 0h0.62v-3h-0.62zm-0.62 0h0.62v-3h-0.62zm-0.621 0h0.621v-3h-0.621zm-0.621 0h0.621v-3h-0.621zm-0.622 0h0.622v-3h-0.622zm-0.622 0h0.622v-3h-0.622zm-0.623 0h0.623v-3h-0.623zm-0.623 0h0.623v-3h-0.623zm-0.624 0h0.624v-3h-0.624zm-0.624 0h0.624v-3h-0.624zm-0.625 0h0.625v-3h-0.625zm-0.626 0h0.626v-3h-0.626zm-0.625 0h0.625v-3h-0.625zm-0.627 0h0.627v-3h-0.627zm-0.626 0h0.626v-3h-0.626zm-0.628 0h0.628v-3h-0.628zm-0.627 0h0.627v-3h-0.627zm-0.628 0h0.628v-3h-0.628zm-0.629 0h0.629v-3h-0.629zm-0.629 0h0.629v-3h-0.629zm-0.629 0h0.629v-3h-0.629zm-0.629 0h0.629v-3h-0.629zm-0.631 0h0.631v-3h-0.631zm-0.63 0h0.63v-3h-0.63zm-0.631 0h0.631v-3h-0.631zm-0.631 0h0.631v-3h-0.631zm-0.631 0h0.631v-3h-0.631zm-0.632 0h0.632v-3h-0.632zm-0.632 0h0.632v-3h-0.632zm-0.632 0h0.632v-3h-0.632zm-0.633 0h0.633v-3h-0.633zm-0.633 0h0.633v-3h-0.633zm-0.633 0h0.633v-3h-0.633zm-0.634 0h0.634v-3h-0.634zm-0.634 0h0.634v-3h-0.634zm-0.634 0h0.634v-3h-0.634zm-0.634 0h0.634v-3h-0.634zm-0.635 0h0.635v-3h-0.635zm-0.634 0h0.634v-3h-0.634zm-0.635 0h0.635v-3h-0.635zm-0.635 0h0.635v-3h-0.635zm-0.636 0h0.636v-3h-0.636zm-0.635 0h0.635v-3h-0.635zm-0.636 0h0.636v-3h-0.636zm-0.636 0h0.636v-3h-0.636zm-0.636 0h0.636v-3h-0.636zm-0.636 0h0.636v-3h-0.636zm-0.636 0h0.636v-3h-0.636zm-0.637 0h0.637v-3h-0.637zm-0.636 0h0.636v-3h-0.636zm-0.637 0h0.637v-3h-0.637zm-0.637 0h0.637v-3h-0.637zm-0.636 0h0.636v-3h-0.636zm-0.637 0h0.637v-3h-0.637zm-0.637 0h0.637v-3h-0.637zm-0.637 0h0.637v-3h-0.637zm-0.638 0h0.638v-3h-0.638zm-0.637 0h0.637v-3h-0.637zm-0.637 0h0.637v-3h-0.637zm-0.637 0h0.637v-3h-0.637zm-0.637 0h0.637v-3h-0.637zm-0.637 0h0.637v-3h-0.637zm-0.638 0h0.638v-3h-0.638zm-0.637 0h0.637v-3h-0.637zm-0.637 0h0.637v-3h-0.637zm-0.637 0h0.637v-3h-0.637zm-0.637 0h0.637v-3h-0.637zm-0.637 0h0.637v-3h-0.637zm-0.637 0h0.637v-3h-0.637zm-0.637 0h0.637v-3h-0.637zm-0.636 0h0.636v-3h-0.636zm-0.637 0h0.637v-3h-0.637zm-0.637 0h0.637v-3h-0.637zm-0.636 0h0.636v-3h-0.636zm-0.636 0h0.636v-3h-0.636zm-0.637 0h0.637v-3h-0.637zm-0.636 0h0.636v-3h-0.636zm-0.635 0h0.635v-3h-0.635zm-0.636 0h0.636v-3h-0.636zm-0.636 0h0.636v-3h-0.636zm-0.635 0h0.635v-3h-0.635zm-0.635 0h0.635v-3h-0.635zm-0.6352 0h0.6352v-3h-0.6352zm-0.6348 0h0.6348v-3h-0.6348zm-0.6345 0h0.6345v-3h-0.6345zm-0.6343 0h0.6343v-3h-0.6343zm-0.6341 0h0.6341v-3h-0.6341zm-0.6338 0h0.6338v-3h-0.6338zm-0.6335 0h0.6335v-3h-0.6335zm-0.6333 0h0.6333v-3h-0.6333zm-0.633 0h0.633v-3h-0.633zm-0.6327 0h0.6327v-3h-0.6327zm-0.6324 0h0.6324v-3h-0.6324zm-0.6321 0h0.6321v-3h-0.6321zm-0.6318 0h0.6318v-3h-0.6318zm-0.6315 0h0.6315v-3h-0.6315zm-0.6311 0h0.6311v-3h-0.6311zm-0.6308 0h0.6308v-3h-0.6308zm-0.6304 0h0.6304v-3h-0.6304zm-0.63 0h0.63v-3h-0.63zm-0.6297 0h0.6297v-3h-0.6297zm-0.6293 0h0.6293v-3h-0.6293zm-0.6289 0h0.6289v-3h-0.6289zm-0.6285 0h0.6285v-3h-0.6285zm-0.6281 0h0.6281v-3h-0.6281zm-0.6276 0h0.6276v-3h-0.6276zm-0.6273 0h0.6273v-3h-0.6273zm-0.6267 0h0.6267v-3h-0.6267zm-0.6264 0h0.6264v-3h-0.6264zm-0.6258 0h0.6258v-3h-0.6258zm-0.6254 0h0.6254v-3h-0.6254zm-0.6249 0h0.6249v-3h-0.6249zm-0.6244 0h0.6244v-3h-0.6244zm-0.624 0h0.624v-3h-0.624zm-0.6234 0h0.6234v-3h-0.6234zm-0.6228 0h0.6228v-3h-0.6228zm-0.6224 0h0.6224v-3h-0.6224zm-0.6218 0h0.6218v-3h-0.6218zm-0.6213 0h0.6213v-3h-0.6213zm-0.6207 0h0.6207v-3h-0.6207zm-0.6201 0h0.6201v-3h-0.6201zm-0.6196 0h0.6196v-3h-0.6196zm-0.619 0h0.619v-3h-0.619zm-0.6183 0h0.6183v-3h-0.6183zm-0.6178 0h0.6178v-3h-0.6178zm-0.6171 0h0.6171v-3h-0.6171zm-0.6166 0h0.6166v-3h-0.6166zm-0.6159 0h0.6159v-3h-0.6159zm-0.6152 0h0.6152v-3h-0.6152zm-0.6146 0h0.6146v-3h-0.6146zm-0.6139 0h0.6139v-3h-0.6139zm-0.6133 0h0.6133v-3h-0.6133zm-0.6125 0h0.6125v-3h-0.6125zm-0.6119 0h0.6119v-3h-0.6119zm-0.6112 0h0.6112v-3h-0.6112zm-0.6104 0h0.6104v-3h-0.6104zm-0.6097 0h0.6097v-3h-0.6097zm-0.609 0h0.609v-3h-0.609zm-0.6083 0h0.6083v-3h-0.6083zm-0.6075 0h0.6075v-3h-0.6075zm-0.6067 0h0.6067v-3h-0.6067zm-0.606 0h0.606v-3h-0.606zm-0.6052 0h0.6052v-3h-0.6052zm-0.6044 0h0.6044v-3h-0.6044zm-0.6036 0h0.6036v-3h-0.6036zm-0.6028 0h0.6028v-3h-0.6028zm-0.602 0h0.602v-3h-0.602zm-0.6011 0h0.6011v-3h-0.6011zm-0.6003 0h0.6003v-3h-0.6003zm-0.5995 0h0.5995v-3h-0.5995zm-0.5986 0h0.5986v-3h-0.5986zm-0.5977 0h0.5977v-3h-0.5977zm-0.5968 0h0.5968v-3h-0.5968zm-0.596 0h0.596v-3h-0.596zm-0.5951 0h0.5951v-3h-0.5951zm-0.5941 0h0.5941v-3h-0.5941zm-0.5933 0h0.5933v-3h-0.5933zm-0.5923 0h0.5923v-3h-0.5923zm-0.5914 0h0.5914v-3h-0.5914zm-0.5904 0h0.5904v-3h-0.5904zm-0.5895 0h0.5895v-3h-0.5895zm-0.5886 0h0.5886v-3h-0.5886zm-0.5875 0h0.5875v-3h-0.5875zm-0.5866 0h0.5866v-3h-0.5866zm-0.5856 0h0.5856v-3h-0.5856zm-0.5845 0h0.5845v-3h-0.5845zm-0.5836 0h0.5836v-3h-0.5836zm-0.5825 0h0.5825v-3h-0.5825zm-0.5815 0h0.5815v-3h-0.5815zm-0.5805 0h0.5805v-3h-0.5805zm-0.5794 0h0.5794v-3h-0.5794zm-0.5784 0h0.5784v-3h-0.5784zm-0.5773 0h0.5773v-3h-0.5773zm-0.5762 0h0.5762v-3h-0.5762zm-0.5751 0h0.5751v-3h-0.5751zm-0.574 0h0.574v-3h-0.574zm-0.5729 0h0.5729v-3h-0.5729zm-0.5718 0h0.5718v-3h-0.5718zm-0.5707 0h0.5707v-3h-0.5707zm-0.5695 0h0.5695v-3h-0.5695zm-0.5684 0h0.5684v-3h-0.5684zm-0.5672 0h0.5672v-3h-0.5672zm-0.566 0h0.566v-3h-0.566zm-0.5649 0h0.5649v-3h-0.5649zm-0.5637 0h0.5637v-3h-0.5637zm-0.5625 0h0.5625v-3h-0.5625zm-0.5613 0h0.5613v-3h-0.5613zm-0.5601 0h0.5601v-3h-0.5601zm-0.5588 0h0.5588v-3h-0.5588zm-0.5577 0h0.5577v-3h-0.5577zm-0.5563 0h0.5563v-3h-0.5563zm-0.5552 0h0.5552v-3h-0.5552zm-0.5538 0h0.5538v-3h-0.5538zm-0.5526 0h0.5526v-3h-0.5526zm-0.5513 0h0.5513v-3h-0.5513zm-0.55 0h0.55v-3h-0.55zm-0.5487 0h0.5487v-3h-0.5487zm-0.5474 0h0.5474v-3h-0.5474zm-0.5461 0h0.5461v-3h-0.5461zm-0.5448 0h0.5448v-3h-0.5448zm-0.5434 0h0.5434v-3h-0.5434zm-0.5421 0h0.5421v-3h-0.5421zm-0.5407 0h0.5407v-3h-0.5407zm-0.5393 0h0.5393v-3h-0.5393zm-0.5379 0h0.5379v-3h-0.5379zm-0.5366 0h0.5366v-3h-0.5366zm-0.5352 0h0.5352v-3h-0.5352zm-0.5337 0h0.5337v-3h-0.5337zm-0.5324 0h0.5324v-3h-0.5324zm-0.5309 0h0.5309v-3h-0.5309zm-0.5295 0h0.5295v-3h-0.5295zm-0.528 0h0.528v-3h-0.528zm-0.5266 0h0.5266v-3h-0.5266zm-0.5251 0h0.5251v-3h-0.5251zm-0.5237 0h0.5237v-3h-0.5237zm-0.5221 0h0.5221v-3h-0.5221zm-0.5207 0h0.5207v-3h-0.5207zm-0.5191 0h0.5191v-3h-0.5191zm-0.5177 0h0.5177v-3h-0.5177zm-0.5161 0h0.5161v-3h-0.5161zm-0.5146 0h0.5146v-3h-0.5146zm-0.513 0h0.513v-3h-0.513zm-0.5115 0h0.5115v-3h-0.5115zm-0.5099 0h0.5099v-3h-0.5099zm-0.5084 0h0.5084v-3h-0.5084zm-0.5068 0h0.5068v-3h-0.5068zm-0.5052 0h0.5052v-3h-0.5052zm-0.5036 0h0.5036v-3h-0.5036zm-0.5019 0h0.5019v-3h-0.5019zm-0.5004 0h0.5004v-3h-0.5004zm-0.4987 0h0.4987v-3h-0.4987zm-0.4971 0h0.4971v-3h-0.4971zm-0.4955 0h0.4955v-3h-0.4955zm-0.4937 0h0.4937v-3h-0.4937zm-0.4921 0h0.4921v-3h-0.4921zm-0.4905 0h0.4905v-3h-0.4905zm-0.4887 0h0.4887v-3h-0.4887zm-0.48709 0h0.48709v-3h-0.48709zm-0.48535 0h0.48535v-3h-0.48535zm-0.48363 0h0.48363v-3h-0.48363zm-0.48191 0h0.48191v-3h-0.48191zm-0.48017 0h0.48017v-3h-0.48017zm-0.47842 0h0.47842v-3h-0.47842zm-0.47667 0h0.47667v-3h-0.47667zm-0.47491 0h0.47491v-3h-0.47491zm-0.47313 0h0.47313v-3h-0.47313zm-0.47135 0h0.47135v-3h-0.47135zm-0.46956 0h0.46956v-3h-0.46956zm-0.46775 0h0.46775v-3h-0.46775zm-0.46594 0h0.46594v-3h-0.46594zm-0.46412 0h0.46412v-3h-0.46412zm-0.46229 0h0.46229v-3h-0.46229zm-0.46044 0h0.46044v-3h-0.46044zm-0.4586 0h0.4586v-3h-0.4586zm-0.45673 0h0.45673v-3h-0.45673zm-0.45487 0h0.45487v-3h-0.45487zm-0.45298 0h0.45298v-3h-0.45298zm-0.45109 0h0.45109v-3h-0.45109zm-0.4492 0h0.4492v-3h-0.4492zm1.5-0.5v-1h-3v1z" fill="#00c4ff"/>
    </g>
</svg>
